<svg xmlns="http://www.w3.org/2000/svg" xmlns:xlink="http://www.w3.org/1999/xlink" width="50" height="50" viewBox="0 0 50 50"><defs><linearGradient id="linear-gradient" x1=".5" x2=".5" y2="1" gradientUnits="objectBoundingBox"><stop offset="0" stop-color="#ff4ebe"/><stop offset="1" stop-color="#ff7e7e"/></linearGradient></defs><g id="icon-1" transform="translate(3)"><circle id="Ellipse_569" cx="25" cy="25" r="25" fill="url(#linear-gradient)" data-name="Ellipse 569" transform="translate(-3)"/><path id="Path_8021" fill="#fff" d="M31.9,38.333a1.758,1.758,0,0,1-1-.317L24.868,33.85a.173.173,0,0,0-.2,0l-6.033,4.167a1.752,1.752,0,0,1-2.039-.032,1.845,1.845,0,0,1-.646-.877,1.9,1.9,0,0,1-.048-1.1l1.981-7.2a.2.2,0,0,0,0-.11.193.193,0,0,0-.061-.09l-5.71-4.625a1.85,1.85,0,0,1-.638-.92,1.9,1.9,0,0,1,0-1.131,1.849,1.849,0,0,1,.64-.919,1.761,1.761,0,0,1,1.039-.363l7.279-.283a.183.183,0,0,0,.1-.038.191.191,0,0,0,.063-.087L23.1,13.217a1.845,1.845,0,0,1,.657-.881,1.752,1.752,0,0,1,2.057,0,1.844,1.844,0,0,1,.657.881l2.507,7.025a.191.191,0,0,0,.063.087.183.183,0,0,0,.1.038l7.279.283a1.761,1.761,0,0,1,1.039.363,1.849,1.849,0,0,1,.64.919,1.9,1.9,0,0,1,0,1.131,1.849,1.849,0,0,1-.638.92l-5.71,4.625a.184.184,0,0,0-.063.09.188.188,0,0,0,0,.111l1.981,7.2a1.913,1.913,0,0,1,.02.844,1.885,1.885,0,0,1-.345.767,1.816,1.816,0,0,1-.638.53,1.759,1.759,0,0,1-.8.184ZM24.771,32.15a1.753,1.753,0,0,1,.995.35L31.8,36.667a.174.174,0,0,0,.213,0,.184.184,0,0,0,.065-.094.189.189,0,0,0,0-.116l-1.981-7.2a1.894,1.894,0,0,1,.021-1.077,1.842,1.842,0,0,1,.6-.881l5.71-4.625a.183.183,0,0,0,.066-.092.189.189,0,0,0,0-.115.184.184,0,0,0-.066-.093.174.174,0,0,0-.106-.034l-7.279-.283a1.762,1.762,0,0,1-.989-.354,1.846,1.846,0,0,1-.629-.862l-2.507-7.025a.184.184,0,0,0-.064-.093.174.174,0,0,0-.211,0,.184.184,0,0,0-.064.093l-2.483,7.017a1.846,1.846,0,0,1-.629.862,1.762,1.762,0,0,1-.989.354l-7.279.283a.175.175,0,0,0-.106.034.183.183,0,0,0-.066.092.189.189,0,0,0,0,.115.183.183,0,0,0,.066.092L18.81,27.3a1.85,1.85,0,0,1,.6.882,1.9,1.9,0,0,1,.022,1.077l-1.973,7.2a.181.181,0,0,0,0,.111.174.174,0,0,0,.065.089.158.158,0,0,0,.21,0l6.033-4.167a1.758,1.758,0,0,1,.995-.308Z" data-name="Path 8021" transform="translate(-2.384 -0.002)"/></g></svg>