<svg width="56" height="56" viewBox="0 0 56 56" fill="none" xmlns="http://www.w3.org/2000/svg">
    <defs>
        <filter id="filter0_i" x="0" y="0" width="56" height="60" filterUnits="userSpaceOnUse"
            color-interpolation-filters="sRGB">
            <feFlood flood-opacity="0" result="BackgroundImageFix" />
            <feBlend mode="normal" in="SourceGraphic" in2="BackgroundImageFix" result="shape" />
            <feColorMatrix in="SourceAlpha" type="matrix"
                values="0 0 0 0 0 0 0 0 0 0 0 0 0 0 0 0 0 0 127 0" result="hardAlpha" />
            <feOffset dy="4" />
            <feGaussianBlur stdDeviation="9" />
            <feComposite in2="hardAlpha" operator="arithmetic" k2="-1" k3="1" />
            <feColorMatrix type="matrix" values="0 0 0 0 0 0 0 0 0 0 0 0 0 0 0 0 0 0 0.1 0" />
            <feBlend mode="normal" in2="shape" result="effect1_innerShadow" />
        </filter>
        <linearGradient id="paint0_linear" x1="28" y1="1" x2="28" y2="55"
            gradientUnits="userSpaceOnUse">
            <stop stop-color="white" />
            <stop offset="1" stop-color="white" stop-opacity="0" />
        </linearGradient>
        <linearGradient id="paint1_linear" x1="28.5" y1="16.875" x2="28.5" y2="40.125"
            gradientUnits="userSpaceOnUse">
            <stop stop-color="#FF4EBE" />
            <stop offset="1" stop-color="#FF7E7E" />
        </linearGradient>
    </defs>
    <g filter="url(#filter0_i)">
        <rect x="1" y="1" width="54" height="54" rx="27" fill="white" />
    </g>
    <rect x="0.5" y="0.5" width="55" height="55" rx="27.5" stroke="#938E8E" />
    <rect x="0.5" y="0.5" width="55" height="55" rx="27.5" stroke="url(#paint0_linear)" />
    <path
        d="M39.8441 21.9997L35.0003 17.156C34.9098 17.0662 34.8024 16.9951 34.6844 16.9469C34.5664 16.8987 34.44 16.8743 34.3125 16.875H18.8125C18.2986 16.875 17.8058 17.0791 17.4425 17.4425C17.0791 17.8058 16.875 18.2987 16.875 18.8125V38.1875C16.875 38.7014 17.0791 39.1942 17.4425 39.5575C17.8058 39.9209 18.2986 40.125 18.8125 40.125H38.1875C38.7014 40.125 39.1942 39.9209 39.5575 39.5575C39.9209 39.1942 40.125 38.7014 40.125 38.1875V22.6875C40.1257 22.56 40.1013 22.4336 40.0531 22.3156C40.0049 22.1976 39.9338 22.0902 39.8441 21.9997ZM24.625 18.8125H32.375V22.6875H24.625V18.8125ZM32.375 38.1875H24.625V30.4375H32.375V38.1875ZM34.3125 38.1875V30.4375C34.3125 29.9237 34.1084 29.4308 33.745 29.0675C33.3817 28.7041 32.8889 28.5 32.375 28.5H24.625C24.1111 28.5 23.6183 28.7041 23.255 29.0675C22.8916 29.4308 22.6875 29.9237 22.6875 30.4375V38.1875H18.8125V18.8125H22.6875V22.6875C22.6875 23.2014 22.8916 23.6942 23.255 24.0575C23.6183 24.4209 24.1111 24.625 24.625 24.625H32.375C32.8889 24.625 33.3817 24.4209 33.745 24.0575C34.1084 23.6942 34.3125 23.2014 34.3125 22.6875V19.2097L38.1875 23.0847V38.1875H34.3125Z"
        fill="url(#paint1_linear)" />
</svg>
