<svg xmlns="http://www.w3.org/2000/svg" fill="none" viewBox="0 0 49 49"><defs><filter id="c" width="48.889" height="52.918" x="0" y="0" color-interpolation-filters="sRGB" filterUnits="userSpaceOnUse"><feFlood flood-opacity="0" result="BackgroundImageFix"/><feBlend in="SourceGraphic" in2="BackgroundImageFix" result="shape"/><feColorMatrix in="SourceAlpha" result="hardAlpha" values="0 0 0 0 0 0 0 0 0 0 0 0 0 0 0 0 0 0 127 0"/><feOffset dy="4"/><feGaussianBlur stdDeviation="9"/><feComposite in2="hardAlpha" k2="-1" k3="1" operator="arithmetic"/><feColorMatrix values="0 0 0 0 0 0 0 0 0 0 0 0 0 0 0 0 0 0 0.1 0"/><feBlend in2="shape" result="effect1_innerShadow"/></filter><linearGradient id="b" x1="24.444" x2="24.444" y1="1" y2="47.918" gradientUnits="userSpaceOnUse"><stop offset="0" stop-color="#fff"/><stop offset="1" stop-color="#fff" stop-opacity="0"/></linearGradient><linearGradient id="a" x1="25" x2="25" y1="16.249" y2="33.75" gradientUnits="userSpaceOnUse"><stop offset="0" stop-color="#FF4EBE"/><stop offset="1" stop-color="#FF7E7E"/></linearGradient></defs><g filter="url(#c)"><rect width="46.889" height="46.918" x="1" y="1" fill="#fff" rx="23.444"/></g><rect width="47.889" height="47.918" x=".5" y=".5" stroke="#938E8E" rx="23.944"/><rect width="47.889" height="47.918" x=".5" y=".5" stroke="url(#b)" rx="23.944"/><path fill="url(#a)" d="m33.75 23.75h-14.825l4.5375-5.45c0.2121-0.2552 0.3142-0.5843 0.2837-0.9149-0.0304-0.3305-0.191-0.6354-0.4462-0.8476-0.2553-0.2122-0.5844-0.3142-0.9149-0.2838-0.3306 0.0305-0.6355 0.1911-0.8476 0.4463l-6.25 7.5c-0.0421 0.0597-0.0797 0.1223-0.1125 0.1875 0 0.0625 0 0.1-0.0875 0.1625-0.0567 0.1433-0.0864 0.2959-0.0875 0.45 0.0011 0.1541 0.0308 0.3067 0.0875 0.45 0 0.0625 0 0.1 0.0875 0.1625 0.0328 0.0652 0.0704 0.1279 0.1125 0.1875l6.25 7.5c0.1175 0.1411 0.2647 0.2546 0.431 0.3324 0.1664 0.0778 0.3478 0.1179 0.5315 0.1176 0.292 6e-4 0.5751-0.1011 0.8-0.2875 0.1265-0.1049 0.2312-0.2338 0.3079-0.3792 0.0766-0.1455 0.1239-0.3046 0.139-0.4683s-0.0023-0.3288-0.0511-0.4858-0.1281-0.3029-0.2333-0.4292l-4.5375-5.45h14.825c0.3315 0 0.6494-0.1317 0.8838-0.3661 0.2345-0.2344 0.3662-0.5524 0.3662-0.8839s-0.1317-0.6494-0.3662-0.8839c-0.2344-0.2344-0.5523-0.3661-0.8838-0.3661z"/></svg>