<svg xmlns="http://www.w3.org/2000/svg" width="26" height="24" fill="none" viewBox="0 0 26 24"><path fill="#292B85" d="M6.83673 0.75C6.83673 0.551088 6.75328 0.360322 6.60473 0.21967C6.45619 0.0790176 6.25472 0 6.04464 0C5.83456 0 5.63309 0.0790176 5.48455 0.21967C5.336 0.360322 5.25255 0.551088 5.25255 0.75V1.5H3.66837C2.82806 1.5 2.02218 1.81607 1.42799 2.37868C0.833809 2.94129 0.5 3.70435 0.5 4.5L0.5 6H25.8469V4.5C25.8469 3.70435 25.5131 2.94129 24.9189 2.37868C24.3247 1.81607 23.5189 1.5 22.6786 1.5H21.0944V0.75C21.0944 0.551088 21.0109 0.360322 20.8624 0.21967C20.7138 0.0790176 20.5124 0 20.3023 0C20.0922 0 19.8907 0.0790176 19.7422 0.21967C19.5936 0.360322 19.5102 0.551088 19.5102 0.75V1.5H6.83673V0.75ZM25.8469 21C25.8469 21.7956 25.5131 22.5587 24.9189 23.1213C24.3247 23.6839 23.5189 24 22.6786 24H3.66837C2.82806 24 2.02218 23.6839 1.42799 23.1213C0.833809 22.5587 0.5 21.7956 0.5 21V7.5H25.8469V21ZM18.2666 11.7825C18.3583 11.7867 18.4499 11.7732 18.536 11.7429C18.622 11.7126 18.7006 11.666 18.7671 11.6061C18.8335 11.5461 18.8865 11.474 18.9226 11.3941C18.9588 11.3142 18.9774 11.2282 18.9774 11.1412C18.9774 11.0543 18.9588 10.9683 18.9226 10.8884C18.8865 10.8085 18.8335 10.7364 18.7671 10.6764C18.7006 10.6165 18.622 10.5699 18.536 10.5396C18.4499 10.5093 18.3583 10.4958 18.2666 10.5C18.1769 10.4992 18.088 10.5153 18.0049 10.5475C17.9219 10.5796 17.8465 10.6271 17.783 10.6871C17.7196 10.7472 17.6695 10.8186 17.6355 10.8972C17.6016 10.9758 17.5846 11.0601 17.5854 11.145C17.5854 11.502 17.8896 11.7825 18.2666 11.7825ZM18.7989 12.627H17.7343V18.7845H18.7989V12.627ZM7.92031 18.7845V15.3345H11.5021V14.4195H7.92031V11.7015H11.8237V10.7865H6.83673V18.7845H7.92031ZM13.1418 18.7845H14.2127V14.97C14.2127 14.139 14.5723 13.4595 15.7224 13.4595C15.9204 13.4595 16.1311 13.4655 16.2436 13.482V12.5625C16.1104 12.5435 15.9759 12.5335 15.8412 12.5325C14.9192 12.5325 14.4297 13.0125 14.238 13.383H14.2063V12.627H13.1418V18.7845Z"/></svg>