<svg xmlns="http://www.w3.org/2000/svg" width="39" height="39" fill="none" viewBox="0 0 39 39"><defs><linearGradient id="paint0_linear" x1="19.5" x2="19.5" y1="0" y2="39" gradientUnits="userSpaceOnUse"><stop stop-color="#FF4EBE"/><stop offset="1" stop-color="#FF7E7E"/></linearGradient></defs><path fill="url(#paint0_linear)" fill-rule="evenodd" d="M5.31818 35.4545H12.4091C12.8793 35.4545 13.3301 35.6415 13.6627 35.9739C13.9951 36.3063 14.1818 36.7573 14.1818 37.2273C14.1818 37.6973 13.9951 38.1483 13.6627 38.4806C13.3301 38.813 12.8793 39 12.4091 39H5.31818C3.9077 39 2.555 38.4395 1.55763 37.4424C0.560253 36.4448 0 35.0923 0 33.6818V26.5909C0 26.1209 0.186751 25.6699 0.519137 25.3375C0.85174 25.0051 1.3025 24.8182 1.77273 24.8182C2.24296 24.8182 2.69371 25.0051 3.02632 25.3375C3.3587 25.6699 3.54545 26.1209 3.54545 26.5909V33.6818C3.54545 33.9112 3.58982 34.1358 3.67399 34.3444C3.76228 34.5634 3.89429 34.7651 4.06459 34.9352C4.39719 35.2676 4.84795 35.4545 5.31818 35.4545ZM35.9737 25.3375C36.3063 25.0051 36.757 24.8182 37.2273 24.8182C37.6975 24.8182 38.1483 25.0051 38.4809 25.3375C38.8132 25.6699 39 26.1209 39 26.5909V33.6818C39 35.0923 38.4397 36.4448 37.4424 37.4424C36.445 38.4395 35.0923 39 33.6818 39H26.5909C26.2986 39 26.0138 38.9277 25.7602 38.7927C25.6059 38.7109 25.463 38.6062 25.3373 38.4806C25.0049 38.1483 24.8182 37.6973 24.8182 37.2273C24.8182 36.7573 25.0049 36.3063 25.3373 35.9739C25.6699 35.6415 26.1207 35.4545 26.5909 35.4545H33.6818C34.1521 35.4545 34.6028 35.2676 34.9354 34.9352C35.2678 34.6028 35.4545 34.1518 35.4545 33.6818V26.5909C35.4545 26.1209 35.6413 25.6699 35.9737 25.3375ZM26.5909 0H33.6818C35.0923 0 36.445 0.560469 37.4424 1.55763C38.4397 2.55522 39 3.9077 39 5.31818V12.4091C39 12.8791 38.8132 13.3301 38.4809 13.6625C38.3439 13.7992 38.1868 13.9118 38.0167 13.9966C37.7737 14.1173 37.5038 14.1818 37.2273 14.1818C36.757 14.1818 36.3063 13.9949 35.9737 13.6625C35.6413 13.3301 35.4545 12.8791 35.4545 12.4091V5.31818C35.4545 5.02475 35.3816 4.73867 35.2462 4.48419C35.1646 4.33098 35.0603 4.18945 34.9354 4.06481C34.6028 3.73242 34.1521 3.54545 33.6818 3.54545H26.5909C26.1207 3.54545 25.6699 3.35849 25.3373 3.0261C25.0049 2.69371 24.8182 2.24274 24.8182 1.77273C24.8182 1.4477 24.9073 1.13219 25.0722 0.858665C25.1458 0.736184 25.2345 0.621926 25.3373 0.519354C25.6699 0.186967 26.1207 0 26.5909 0ZM3.02632 13.6625C2.69371 13.9949 2.24296 14.1818 1.77273 14.1818C1.3025 14.1818 0.85174 13.9949 0.519137 13.6625C0.186751 13.3301 0 12.8791 0 12.4091V5.31818C0 3.9077 0.560253 2.55522 1.55763 1.55763C2.555 0.560469 3.9077 0 5.31818 0H12.4091C12.8793 0 13.3301 0.186967 13.6627 0.519354C13.9951 0.85174 14.1818 1.30271 14.1818 1.77273C14.1818 2.24274 13.9951 2.69371 13.6627 3.0261C13.3301 3.35849 12.8793 3.54545 12.4091 3.54545H5.31818C5.06521 3.54545 4.81787 3.59955 4.59152 3.70126C4.39719 3.78869 4.21823 3.91117 4.06459 4.06481C3.73221 4.39719 3.54545 4.84817 3.54545 5.31818V12.4091C3.54545 12.8791 3.3587 13.3301 3.02632 13.6625ZM17.8699 5.88471C18.5143 5.51337 19.2449 5.31818 19.9884 5.31818C20.732 5.31818 21.4625 5.51337 22.1069 5.88471L22.1108 5.88687L30.7566 10.8272L30.7635 10.8311C31.2742 11.1259 31.7165 11.5236 32.0634 11.9962C32.1579 12.0957 32.2423 12.2074 32.3142 12.3316C32.375 12.4368 32.4237 12.5454 32.4609 12.6562C32.7394 13.231 32.8853 13.862 32.8859 14.5047V24.3936C32.885 25.1397 32.6886 25.8707 32.3161 26.5152C31.9435 27.16 31.4081 27.695 30.7635 28.0672L30.7566 28.0711L22.1108 33.0114L22.1067 33.014C21.9583 33.0993 21.8053 33.1754 21.6484 33.2421C21.3591 33.365 21.0572 33.4555 20.7482 33.5117C20.5179 33.6212 20.2604 33.6823 19.9884 33.6823C19.7166 33.6823 19.4593 33.6212 19.2291 33.5117L19.1369 33.494C18.6935 33.4031 18.2655 33.2417 17.8701 33.014L17.866 33.0114L9.22026 28.0711L9.21333 28.0672C8.56869 27.695 8.03332 27.16 7.66068 26.5152C7.28826 25.8707 7.09177 25.1397 7.09091 24.3936V14.5047C7.09156 13.8611 7.23806 13.2284 7.51743 12.6532C7.55443 12.5433 7.60291 12.4359 7.66306 12.3316C7.73447 12.2083 7.81822 12.097 7.91214 11.9979C8.25924 11.5245 8.70199 11.1263 9.21333 10.8311L9.22026 10.8272L13.1656 8.5728C13.3956 8.33995 13.6826 8.17982 13.9903 8.10148L17.8699 5.88471ZM28.9908 24.9969L21.7611 29.128V20.4842L29.3405 16.1V24.3919C29.3402 24.5144 29.308 24.6347 29.2465 24.7411C29.1857 24.8463 29.0983 24.9342 28.9908 24.9969ZM10.6364 16.1L18.2157 20.4842V29.128L10.9861 24.9969C10.9456 24.9731 10.9084 24.9463 10.8744 24.9164C10.8543 24.8991 10.8354 24.8805 10.8177 24.861C10.7846 24.8247 10.7552 24.7844 10.7303 24.7411C10.669 24.6351 10.6366 24.5148 10.6364 24.3923V16.1ZM27.5164 13.0591L20.345 8.96145L20.3381 8.95755C20.2319 8.8961 20.1111 8.86364 19.9884 8.86364C19.9151 8.86364 19.8423 8.87532 19.7731 8.89783C19.7264 8.91298 19.6813 8.93288 19.6387 8.95755L19.6318 8.96145L18.0519 9.86426L25.5574 14.1926L27.5164 13.0591ZM22.0143 16.2424L19.9886 17.4139L12.4606 13.0591L14.4869 11.9014L22.0143 16.2424Z" clip-rule="evenodd"/></svg>