<svg xmlns="http://www.w3.org/2000/svg" xmlns:xlink="http://www.w3.org/1999/xlink" width="34.402" height="31" viewBox="0 0 34.402 31"><defs><linearGradient id="linear-gradient" x1=".5" x2=".5" y2="1" gradientUnits="objectBoundingBox"><stop offset="0" stop-color="#ff4ebe"/><stop offset="1" stop-color="#ff7e7e"/></linearGradient></defs><path id="Vector_Stroke_" fill="url(#linear-gradient)" fill-rule="evenodd" d="M0,9.272A9.312,9.312,0,0,1,9.35,0a10.535,10.535,0,0,1,6.508,2.7A17.484,17.484,0,0,1,17.2,3.94,17.463,17.463,0,0,1,18.543,2.7,10.536,10.536,0,0,1,25.051,0,9.312,9.312,0,0,1,34.4,9.272,17.779,17.779,0,0,1,31.824,18.2c-2.181,3.784-6.1,8.087-13.034,12.348l-.006,0a3.046,3.046,0,0,1-3.167,0l-.006,0C8.68,26.291,4.759,21.988,2.578,18.2A17.779,17.779,0,0,1,0,9.272ZM15.976,7.078c-.021-.026-.054-.069-.1-.124-.09-.111-.228-.276-.408-.476A14.72,14.72,0,0,0,13.944,5.01,7.6,7.6,0,0,0,9.35,3,6.312,6.312,0,0,0,3,9.272a14.794,14.794,0,0,0,2.177,7.434C7.063,19.979,10.591,23.945,17.183,28l-.006,0A.046.046,0,0,0,17.2,28a.047.047,0,0,0,.023-.006c6.588-4.051,10.115-8.016,12-11.288A14.794,14.794,0,0,0,31.4,9.272,6.312,6.312,0,0,0,25.051,3a7.6,7.6,0,0,0-4.594,2.01,14.7,14.7,0,0,0-1.525,1.468c-.18.2-.318.365-.408.476-.045.056-.078.1-.1.124H17.16m-1.184,0a1.5,1.5,0,0,0,2.45,0" data-name="Vector (Stroke)"/></svg>