<svg width="29" height="27" viewBox="0 0 29 27" fill="none" xmlns="http://www.w3.org/2000/svg">
    <defs>
        <linearGradient id="paint0_linear" x1="14.1667" y1="0" x2="14.1667" y2="26.9167"
            gradientUnits="userSpaceOnUse">
            <stop stop-color="#FF4EBE" />
            <stop offset="1" stop-color="#FF7E7E" />
        </linearGradient>
    </defs>
    <path
        d="M24.293 1.37558C24.0406 0.956991 23.6845 0.610513 23.2592 0.369568C22.8339 0.128623 22.3537 0.00134106 21.8648 0H6.4685C5.47967 0 4.54892 0.527 4.04033 1.37558L0.202584 7.77042C0.0697791 7.99058 -0.0002762 8.24288 8.18379e-07 8.5C0.00565857 9.86739 0.509284 11.1859 1.41667 12.2088V24.0833C1.41667 25.6459 2.68742 26.9167 4.25 26.9167H24.0833C25.6459 26.9167 26.9167 25.6459 26.9167 24.0833V12.2088C27.8241 11.1859 28.3277 9.86739 28.3333 8.5C28.3336 8.24288 28.2636 7.99058 28.1308 7.77042L24.293 1.37558ZM25.4773 8.85558C25.3899 9.53958 25.0564 10.1683 24.5391 10.6243C24.0218 11.0803 23.3562 11.3324 22.6667 11.3333C21.1041 11.3333 19.8333 10.0626 19.8333 8.5C19.8333 8.40367 19.7979 8.31867 19.7781 8.228L19.8064 8.22233L18.7283 2.83333H21.8648L25.4773 8.85558ZM12.4936 2.83333H15.8383L16.9901 8.59208C16.9405 10.1107 15.6967 11.3333 14.1667 11.3333C12.6367 11.3333 11.3928 10.1107 11.3433 8.59208L12.4936 2.83333ZM6.4685 2.83333H9.605L8.52834 8.22233L8.55667 8.228C8.53542 8.31867 8.5 8.40367 8.5 8.5C8.5 10.0626 7.22925 11.3333 5.66667 11.3333C4.97711 11.3324 4.31149 11.0803 3.79423 10.6243C3.27696 10.1683 2.94344 9.53958 2.856 8.85558L6.4685 2.83333ZM11.3333 24.0833V19.8333H17V24.0833H11.3333ZM19.8333 24.0833V19.8333C19.8333 18.2707 18.5626 17 17 17H11.3333C9.77075 17 8.5 18.2707 8.5 19.8333V24.0833H4.25V13.9655C4.70475 14.0831 5.17367 14.1667 5.66667 14.1667C6.47107 14.1671 7.2663 13.9958 7.99922 13.6643C8.73213 13.3328 9.38584 12.8486 9.91667 12.2442C10.9551 13.4229 12.4766 14.1667 14.1667 14.1667C15.8568 14.1667 17.3783 13.4229 18.4167 12.2442C18.9475 12.8486 19.6012 13.3328 20.3341 13.6643C21.067 13.9958 21.8623 14.1671 22.6667 14.1667C23.1597 14.1667 23.6286 14.0831 24.0833 13.9655V24.0833H19.8333Z"
        fill="url(#paint0_linear)" />
</svg>
