<svg width="28" height="28" viewBox="0 0 28 28" fill="none" xmlns="http://www.w3.org/2000/svg">
    <defs>
        <linearGradient id="paint0_linear" x1="14.2" y1="1" x2="14.2" y2="27.4"
            gradientUnits="userSpaceOnUse">
            <stop stop-color="#FF4EBE" />
            <stop offset="1" stop-color="#FF7E7E" />
        </linearGradient>
        <linearGradient id="paint1_linear" x1="14.2" y1="1" x2="14.2" y2="27.4"
            gradientUnits="userSpaceOnUse">
            <stop stop-color="#FF4EBE" />
            <stop offset="1" stop-color="#FF7E7E" />
        </linearGradient>
    </defs>
    <path
        d="M13.1547 0.941151L13.0625 0.948416V0.950277C9.74176 1.23135 6.65052 2.75225 4.40217 5.20663L4.40369 2.24539L4.40393 2.24539L4.40345 2.2385L4.3919 2.0702L4.39214 2.07018L4.39121 2.06344C4.3515 1.77427 4.21829 1.50603 4.0119 1.29963C3.80551 1.09324 3.53726 0.960029 3.24809 0.920322L3.24812 0.920092L3.24134 0.919627L3.07304 0.908077L3.0731 0.907132L3.05934 0.908077L2.89104 0.919627L2.89103 0.919396L2.88429 0.920322C2.59512 0.960029 2.32687 1.09324 2.12048 1.29963C1.91409 1.50603 1.78088 1.77427 1.74117 2.06344L1.74094 2.06341L1.74047 2.0702L1.72892 2.2385L1.72869 2.23848V2.24534V8.84534H1.72845L1.72892 8.85219L1.74047 9.02049L1.74024 9.0205L1.74117 9.02725C1.78088 9.31642 1.91409 9.58466 2.12048 9.79105C2.32687 9.99744 2.59512 10.1307 2.88429 10.1704L2.88425 10.1706L2.89104 10.1711L3.05934 10.1826L3.05933 10.1828H3.06619H9.66619V10.1831L9.67303 10.1826L9.84134 10.1711L9.84135 10.1713L9.84812 10.1704C10.1682 10.1263 10.4616 9.96785 10.674 9.72428C10.8863 9.48071 11.0033 9.16849 11.0033 8.84534C11.0033 8.5222 10.8863 8.20998 10.674 7.9664C10.4616 7.72283 10.1682 7.56437 9.84812 7.52033L9.84814 7.52016L9.84231 7.5197L9.67401 7.5065L9.67403 7.50619H9.66619H5.95258L6.15393 7.26142C7.79066 5.36296 10.0459 4.10429 12.521 3.70791C14.9964 3.31147 17.5323 3.80313 19.6803 5.09595C21.8282 6.38877 23.4498 8.39947 24.2584 10.7725C25.0669 13.1455 25.0103 15.728 24.0986 18.0634C23.1868 20.3987 21.4786 22.3364 19.2761 23.5339C17.0736 24.7313 14.5186 25.1114 12.0628 24.6068C9.60714 24.1023 7.40894 22.7457 5.85693 20.7768C4.30493 18.808 3.4991 16.3538 3.58193 13.8481L3.58194 13.8478C3.58721 13.6722 3.55784 13.4972 3.49549 13.333C3.43315 13.1687 3.33905 13.0183 3.21858 12.8904C3.09812 12.7624 2.95363 12.6595 2.79338 12.5874C2.63313 12.5153 2.46025 12.4755 2.28461 12.4703C2.10898 12.465 1.93402 12.4944 1.76974 12.5567C1.60545 12.6191 1.45506 12.7132 1.32714 12.8336C1.19922 12.9541 1.09628 13.0986 1.0242 13.2588C0.95215 13.419 0.912342 13.5918 0.907042 13.7673C0.819418 16.4594 1.55124 19.1147 3.00568 21.3817C4.46013 23.6488 6.56863 25.4208 9.0522 26.4634C11.5358 27.5059 14.2774 27.7698 16.9142 27.2201C19.551 26.6704 21.9588 25.3331 23.819 23.3851C25.6791 21.4371 26.904 18.9701 27.3314 16.3108C27.7589 13.6514 27.3689 10.9249 26.2129 8.49206C25.0569 6.05922 23.1895 4.03469 20.8578 2.68636C18.526 1.33803 15.8399 0.729453 13.1547 0.941151ZM13.7931 7.50643L13.7931 7.50548L13.7794 7.50643L13.6111 7.51798L13.6111 7.51775L13.6043 7.51867C13.3152 7.55838 13.0469 7.69159 12.8405 7.89798C12.6341 8.10437 12.5009 8.37262 12.4612 8.66179L12.461 8.66176L12.4605 8.66855L12.449 8.83685L12.4487 8.83683V8.84369V15.4371H12.4485L12.449 15.4439L12.4605 15.6122L12.4603 15.6123L12.4612 15.6189C12.5005 15.9084 12.6336 16.177 12.84 16.3837C13.0464 16.5905 13.3149 16.724 13.6043 16.7638L13.6043 16.7641L13.6121 16.7645L13.7804 16.7744L13.7804 16.7746H13.7862H17.9112V16.7748L17.9171 16.7744L18.0854 16.7645L18.0854 16.7648L18.0927 16.7638C18.4142 16.7212 18.7092 16.5633 18.9229 16.3194C19.1366 16.0755 19.2545 15.7622 19.2545 15.4379C19.2545 15.1136 19.1366 14.8004 18.9229 14.5565C18.7092 14.3126 18.4142 14.1546 18.0927 14.112L18.0927 14.1118L18.0864 14.1114L17.9181 14.0998L17.9181 14.0996L17.9113 14.0996L15.1237 14.098V8.84369H15.124L15.1235 8.83685L15.112 8.66855L15.1122 8.66853L15.1113 8.66179C15.0716 8.37262 14.9383 8.10437 14.7319 7.89798C14.5256 7.69159 14.2573 7.55838 13.9681 7.51867L13.9682 7.51844L13.9614 7.51798L13.7931 7.50643Z"
        fill="url(#paint0_linear)" stroke="url(#paint1_linear)" stroke-width="0.2" />
</svg>
