<?xml version="1.0" encoding="UTF-8"?>
<svg viewBox="0 0 81 81" xmlns="http://www.w3.org/2000/svg"
    xmlns:xlink="http://www.w3.org/1999/xlink">
    <defs>
        <linearGradient id="e" x1=".5" x2=".5" y2="1">
            <stop stop-color="#ff4ebe" offset="0" />
            <stop stop-color="#ff7e7e" offset="1" />
        </linearGradient>
        <linearGradient id="b" x1=".878" x2=".28" y1=".081" y2=".995">
            <stop stop-color="#23b5d6" offset=".079" />
            <stop stop-color="#84c07f" offset=".566" />
            <stop stop-color="#84c07f" offset="1" />
        </linearGradient>
        <linearGradient id="f" x1=".878" x2=".251" y1=".081" y2=".97" xlink:href="#b" />
        <linearGradient id="a" x1=".5" x2=".5" y2="1">
            <stop stop-color="#e5d6ff" offset="0" />
            <stop stop-color="#b3f8eb" offset="1" />
        </linearGradient>
    </defs>
    <path
        d="m40.867 11.415a7.574 7.574 0 0 0-3.781 1.011l-18.749 10.71h-8e-3a7.569 7.569 0 0 0-3.786 6.547v21.432a7.568 7.568 0 0 0 3.786 6.547h8e-3l18.744 10.711a7.575 7.575 0 0 0 7.564 0l18.755-10.706h9e-3a7.568 7.568 0 0 0 3.786-6.547v-21.432a7.568 7.568 0 0 0-3.795-6.547h-9e-3l-18.738-10.711a7.574 7.574 0 0 0-3.786-1.015zm-1.572 4.848a3.145 3.145 0 0 1 3.143 0h8e-3l18.744 10.712a3.142 3.142 0 0 1 1.568 2.716v21.419a3.142 3.142 0 0 1-1.568 2.716l-18.743 10.709h-8e-3a3.144 3.144 0 0 1-3.143 0h-9e-3l-18.744-10.707a3.142 3.142 0 0 1-1.568-2.715v-21.421a3.142 3.142 0 0 1 1.568-2.715l18.743-10.709zm-17.654 13.885a0.986 0.986 0 0 0-0.986 0.986v18.338a0.986 0.986 0 1 0 1.972 0v-18.338a0.986 0.986 0 0 0-0.986-0.986zm20.769-9.63a0.986 0.986 0 1 1 0.99-1.708l15.881 9.169a0.986 0.986 0 1 1-0.986 1.708zm16.243 31.188a0.986 0.986 0 0 0-1.347-0.361l-15.882 9.169a0.986 0.986 0 0 0 0.986 1.708l15.881-9.169a0.986 0.986 0 0 0 0.362-1.347z"
        fill="url(#e)" fill-rule="evenodd" data-name="Path 8029" />
    <path
        d="M40.883,33.032a13.878,13.878,0,0,1,9.423-1.99,18.847,18.847,0,0,1,6.828,1.984,8.41,8.41,0,0,0-3.529,2.228c-1.97,2.008-2.9,4.736-4.21,7.174a14.738,14.738,0,0,1-3.978,5.385,6.184,6.184,0,0,1-3.8,1.265,8.222,8.222,0,0,0-.591-5.574,21,21,0,0,1,7.009-8.1c.631-.427,1.322-.75,1.975-1.137a19.343,19.343,0,0,0-10.028,7.558A9.529,9.529,0,0,0,36.43,39.18,10.977,10.977,0,0,1,40.883,33.032Z"
        fill="url(#b)" data-name="Path 8030" />
    <path
        d="M25.782,40.024a14.3,14.3,0,0,1,8.738-.872,8.578,8.578,0,0,1,5.962,4.875,7.253,7.253,0,0,1-.475,7.024,17.125,17.125,0,0,0-6.7-8.659,10.516,10.516,0,0,0-2.236-1.075c3.989,2.265,6.548,6.578,7.468,11.055a4,4,0,0,1-4.176-.3A9.916,9.916,0,0,1,31.2,47.581c-.845-1.82-1.406-3.814-2.651-5.414A6.867,6.867,0,0,0,25.782,40.024Z"
        fill="url(#f)" data-name="Path 8031" />
    <path
        d="M0,1.669A1.669,1.669,0,0,1,1.669,0h27.51a1.669,1.669,0,0,1,0,3.338H3.338V29.179a1.669,1.669,0,0,1-3.338,0Z"
        fill="url(#a)" fill-rule="evenodd" data-name="Path 8032" />
    <path
        d="M81,1.669A1.669,1.669,0,0,0,79.331,0H51.821a1.669,1.669,0,0,0,0,3.338H77.662V29.179a1.669,1.669,0,0,0,3.338,0Z"
        fill="url(#a)" fill-rule="evenodd" data-name="Path 8033" />
    <path
        d="M81,79.331A1.669,1.669,0,0,1,79.331,81H51.821a1.669,1.669,0,0,1,0-3.338H77.662V51.821a1.669,1.669,0,0,1,3.338,0Z"
        fill="url(#a)" fill-rule="evenodd" data-name="Path 8034" />
    <path
        d="M0,79.331A1.669,1.669,0,0,0,1.669,81h27.51a1.669,1.669,0,0,0,0-3.338H3.338V51.821a1.669,1.669,0,0,0-3.338,0Z"
        fill="url(#a)" fill-rule="evenodd" data-name="Path 8035" />
</svg>
