<?xml version="1.0" encoding="UTF-8"?>
<svg fill="none" viewBox="0 0 711 711" xmlns="http://www.w3.org/2000/svg">
    <defs>
        <linearGradient id="m" x1="135.53" x2="135.53" y2="271.07" gradientUnits="userSpaceOnUse">
            <stop stop-color="#FF4EBE" offset="0" />
            <stop stop-color="#FF7E7E" offset="1" />
        </linearGradient>
        <linearGradient id="n" x1="575.47" x2="575.47" y2="271.07" gradientUnits="userSpaceOnUse">
            <stop stop-color="#FF4EBE" offset="0" />
            <stop stop-color="#FF7E7E" offset="1" />
        </linearGradient>
        <linearGradient id="u" x1="575.47" x2="575.47" y1="711" y2="439.93"
            gradientUnits="userSpaceOnUse">
            <stop stop-color="#FF4EBE" offset="0" />
            <stop stop-color="#FF7E7E" offset="1" />
        </linearGradient>
        <linearGradient id="v" x1="135.53" x2="135.53" y1="711" y2="439.93"
            gradientUnits="userSpaceOnUse">
            <stop stop-color="#FF4EBE" offset="0" />
            <stop stop-color="#FF7E7E" offset="1" />
        </linearGradient>
        <linearGradient id="w" x1="590.38" x2="659.1" y1="291.46" y2="288.11"
            gradientUnits="userSpaceOnUse">
            <stop stop-color="#B3F8EB" offset="0" />
            <stop stop-color="#E5D6FF" offset="1" />
        </linearGradient>
        <linearGradient id="a" x1="123.74" x2="640.77" y1="598.23" y2="204.72"
            gradientUnits="userSpaceOnUse">
            <stop stop-color="#B3F8EB" offset="0" />
            <stop stop-color="#E5D6FF" offset="1" />
        </linearGradient>
        <linearGradient id="o" x1="508.15" x2="384.11" y1="197.81" y2="328.17"
            gradientUnits="userSpaceOnUse">
            <stop stop-color="#23B5D6" offset=".078944" />
            <stop stop-color="#84C07F" offset=".56638" />
            <stop stop-color="#84C07F" offset="1" />
        </linearGradient>
        <linearGradient id="p" x1="268.15" x2="144.11" y1="197.81" y2="328.17"
            gradientUnits="userSpaceOnUse">
            <stop stop-color="#23B5D6" offset=".078944" />
            <stop stop-color="#84C07F" offset=".56638" />
            <stop stop-color="#84C07F" offset="1" />
        </linearGradient>
        <linearGradient id="q" x1="386.15" x2="262.11" y1="407.81" y2="538.17"
            gradientUnits="userSpaceOnUse">
            <stop stop-color="#23B5D6" offset=".078944" />
            <stop stop-color="#84C07F" offset=".56638" />
            <stop stop-color="#84C07F" offset="1" />
        </linearGradient>
        <linearGradient id="r" x1="530.72" x2="367.4" y1="174.63" y2="347.09"
            gradientUnits="userSpaceOnUse">
            <stop stop-color="#23B5D6" offset=".078944" />
            <stop stop-color="#84C07F" offset=".56638" />
            <stop stop-color="#84C07F" offset="1" />
        </linearGradient>
        <linearGradient id="s" x1="290.72" x2="127.4" y1="174.63" y2="347.09"
            gradientUnits="userSpaceOnUse">
            <stop stop-color="#23B5D6" offset=".078944" />
            <stop stop-color="#84C07F" offset=".56638" />
            <stop stop-color="#84C07F" offset="1" />
        </linearGradient>
        <linearGradient id="t" x1="408.72" x2="245.4" y1="384.63" y2="557.09"
            gradientUnits="userSpaceOnUse">
            <stop stop-color="#23B5D6" offset=".078944" />
            <stop stop-color="#84C07F" offset=".56638" />
            <stop stop-color="#84C07F" offset="1" />
        </linearGradient>
    </defs>
    <path
        d="m0 14.664c0-8.0989 6.5655-14.664 14.664-14.664h241.74c8.099 0 14.665 6.5655 14.665 14.664 0 8.0989-6.566 14.664-14.665 14.664h-227.08v227.08c0 8.099-6.5655 14.665-14.664 14.665-8.0989 0-14.664-6.566-14.664-14.665v-241.74z"
        clip-rule="evenodd" fill="url(#m)" fill-rule="evenodd" />
    <path
        d="m0 14.664c0-8.0989 6.5655-14.664 14.664-14.664h241.74c8.099 0 14.665 6.5655 14.665 14.664 0 8.0989-6.566 14.664-14.665 14.664h-227.08v227.08c0 8.099-6.5655 14.665-14.664 14.665-8.0989 0-14.664-6.566-14.664-14.665v-241.74z"
        clip-rule="evenodd" fill="url(#m)" fill-rule="evenodd" />
    <path
        d="m711 14.664c0-8.0989-6.565-14.664-14.664-14.664h-241.74c-8.099 0-14.665 6.5655-14.665 14.664 0 8.0989 6.566 14.664 14.665 14.664h227.08v227.08c0 8.099 6.566 14.665 14.665 14.665s14.664-6.566 14.664-14.665v-241.74z"
        clip-rule="evenodd" fill="url(#n)" fill-rule="evenodd" />
    <path
        d="m711 14.664c0-8.0989-6.565-14.664-14.664-14.664h-241.74c-8.099 0-14.665 6.5655-14.665 14.664 0 8.0989 6.566 14.664 14.665 14.664h227.08v227.08c0 8.099 6.566 14.665 14.665 14.665s14.664-6.566 14.664-14.665v-241.74z"
        clip-rule="evenodd" fill="url(#n)" fill-rule="evenodd" />
    <path
        d="m711 696.34c0 8.099-6.565 14.664-14.664 14.664h-241.74c-8.099 0-14.665-6.565-14.665-14.664s6.566-14.665 14.665-14.665h227.08v-227.08c0-8.099 6.566-14.665 14.665-14.665s14.664 6.566 14.664 14.665v241.74z"
        clip-rule="evenodd" fill="url(#u)" fill-rule="evenodd" />
    <path
        d="m0 696.34c0 8.099 6.5655 14.664 14.664 14.664h241.74c8.099 0 14.665-6.565 14.665-14.664s-6.566-14.665-14.665-14.665h-227.08v-227.08c0-8.099-6.5655-14.665-14.664-14.665-8.0989 0-14.664 6.566-14.664 14.665v241.74z"
        clip-rule="evenodd" fill="url(#v)" fill-rule="evenodd" />
    <ellipse cx="623" cy="267.5" rx="34" ry="34.5" fill="url(#w)" />
    <path
        d="m130.38 429.84c-19.52 22.497-32.435 42.934-38.778 59.976-6.3843 17.154-5.2203 28.143-1.3836 34.958 3.8368 6.814 12.629 13.508 30.607 16.945 17.86 3.415 42.032 2.971 71.39-2.053 58.535-10.015 133.25-37.455 209.71-80.502 76.456-43.047 138.66-92.7 177.58-137.56 4.321-4.98 8.319-9.86 11.993-14.624 2.215-2.872 4.313-5.703 6.294-8.488 1.735 2.062 7.706 6.867 17.706 9.593-2.053 2.943-4.214 5.914-6.48 8.907-39.083 51.629-109.46 110.15-197.28 159.59-155.83 87.737-307.58 113.7-338.94 57.995-20.529-36.461 15.602-98.872 86.709-162.24 5.176-4.613 10.537-9.231 16.076-13.845l18.713 10.5c-5.616 4.569-11.049 9.139-16.289 13.701-18.346 15.971-34.339 31.836-47.62 47.142z"
        fill="url(#a)" />
    <path
        d="m323 284.01v-22.641c6.018-3.147 12.02-6.2 18-9.157v22.375c-5.978 3.042-11.981 6.183-18 9.423z"
        fill="url(#a)" />
    <path
        d="m538 188.83c49.323-4.907 85.507 3.898 99.096 28.033 1.96 3.481 3.404 7.2 4.35 11.133 0.237 0.987 0.443 1.987 0.618 3-6.349-4.4-17.576-4.714-22.396-4.321-0.477-0.847-1.03-1.692-1.668-2.529-4.496-5.899-13.195-11.407-28.939-14.417-7.579-1.449-16.295-2.203-26.061-2.207-8.893-4e-3 -18.658 0.614-29.229 1.896l-27.58-15.875c11.098-2.135 21.728-3.711 31.809-4.713z"
        fill="url(#a)" />
    <path
        d="m455.48 202.32c-4.783-2.762-6.422-8.878-3.66-13.661 2.761-4.783 8.877-6.421 13.66-3.66l56.292 32.5c4.783 2.761 6.421 8.877 3.66 13.66s-8.877 6.422-13.66 3.661l-56.292-32.5zm-84.66 34.679c0-5.523 4.477-10 10-10s10 4.477 10 10v65c0 5.523-4.477 10-10 10s-10-4.477-10-10v-65zm155 73.66c-2.762-4.783-8.878-6.421-13.66-3.66l-56.292 32.5c-4.783 2.761-6.422 8.877-3.66 13.66 2.761 4.783 8.877 6.422 13.66 3.66l56.292-32.5c4.782-2.761 6.421-8.877 3.66-13.66z"
        clip-rule="evenodd" fill="url(#o)" fill-rule="evenodd" />
    <path
        d="m215.48 202.32c-4.783-2.762-6.422-8.878-3.66-13.661 2.761-4.783 8.877-6.421 13.66-3.66l56.292 32.5c4.783 2.761 6.421 8.877 3.66 13.66s-8.877 6.422-13.66 3.661l-56.292-32.5zm-84.66 34.679c0-5.523 4.477-10 10-10s10 4.477 10 10v65c0 5.523-4.477 10-10 10s-10-4.477-10-10v-65zm155 73.66c-2.762-4.783-8.878-6.421-13.66-3.66l-56.292 32.5c-4.783 2.761-6.422 8.877-3.66 13.66 2.761 4.783 8.877 6.422 13.66 3.66l56.292-32.5c4.782-2.761 6.421-8.877 3.66-13.66z"
        clip-rule="evenodd" fill="url(#p)" fill-rule="evenodd" />
    <path
        d="m333.48 412.32c-4.783-2.761-6.422-8.877-3.66-13.66 2.761-4.783 8.877-6.421 13.66-3.66l56.292 32.5c4.783 2.761 6.421 8.877 3.66 13.66s-8.877 6.422-13.66 3.66l-56.292-32.5zm-84.66 34.68c0-5.523 4.477-10 10-10s10 4.477 10 10v65c0 5.523-4.477 10-10 10s-10-4.477-10-10v-65zm155 73.66c-2.762-4.783-8.878-6.421-13.66-3.66l-56.292 32.5c-4.783 2.761-6.422 8.877-3.66 13.66 2.761 4.783 8.877 6.422 13.66 3.66l56.292-32.5c4.782-2.761 6.421-8.877 3.66-13.66z"
        clip-rule="evenodd" fill="url(#q)" fill-rule="evenodd" />
    <path
        d="m555.88 316.88v-91.946c-4e-3 -4.031-1.068-7.99-3.085-11.479-2.018-3.49-4.917-6.388-8.408-8.404l-80.452-45.972c-3.495-2.018-7.459-3.08-11.493-3.08-4.035 0-7.999 1.062-11.494 3.08l-80.452 45.972c-3.491 2.016-6.39 4.914-8.408 8.404-2.017 3.489-3.081 7.448-3.085 11.479v91.946c4e-3 4.031 1.068 7.99 3.085 11.48 2.018 3.489 4.917 6.387 8.408 8.403l80.452 45.973c3.495 2.017 7.459 3.079 11.494 3.079 4.034 0 7.998-1.062 11.493-3.079l80.452-45.973c3.491-2.016 6.39-4.914 8.408-8.403 2.017-3.49 3.081-7.449 3.085-11.48z"
        stroke="url(#r)" stroke-linecap="round" stroke-linejoin="round" stroke-width="19" />
    <path
        d="m315.88 316.88v-91.946c-4e-3 -4.031-1.068-7.99-3.085-11.479-2.018-3.49-4.917-6.388-8.408-8.404l-80.452-45.972c-3.495-2.018-7.459-3.08-11.493-3.08-4.035 0-7.999 1.062-11.494 3.08l-80.452 45.972c-3.491 2.016-6.39 4.914-8.408 8.404-2.017 3.489-3.081 7.448-3.085 11.479v91.946c4e-3 4.031 1.068 7.99 3.085 11.48 2.018 3.489 4.917 6.387 8.408 8.403l80.452 45.973c3.495 2.017 7.459 3.079 11.494 3.079 4.034 0 7.998-1.062 11.493-3.079l80.452-45.973c3.491-2.016 6.39-4.914 8.408-8.403 2.017-3.49 3.081-7.449 3.085-11.48z"
        stroke="url(#s)" stroke-linecap="round" stroke-linejoin="round" stroke-width="19" />
    <path
        d="m433.88 526.88v-91.946c-4e-3 -4.031-1.068-7.99-3.085-11.479-2.018-3.49-4.917-6.388-8.408-8.404l-80.452-45.972c-3.495-2.018-7.459-3.08-11.493-3.08-4.035 0-7.999 1.062-11.494 3.08l-80.452 45.972c-3.491 2.016-6.39 4.914-8.408 8.404-2.017 3.489-3.081 7.448-3.085 11.479v91.946c4e-3 4.031 1.068 7.99 3.085 11.48 2.018 3.489 4.917 6.387 8.408 8.403l80.452 45.973c3.495 2.017 7.459 3.079 11.494 3.079 4.034 0 7.998-1.062 11.493-3.079l80.452-45.973c3.491-2.016 6.39-4.914 8.408-8.403 2.017-3.49 3.081-7.449 3.085-11.48z"
        stroke="url(#t)" stroke-linecap="round" stroke-linejoin="round" stroke-width="19" />
</svg>
