<svg xmlns="http://www.w3.org/2000/svg" width="35" height="32" fill="none" viewBox="0 0 35 32"><path fill="#76C3F9" fill-rule="evenodd" d="M18.2693 0.859815L18.2693 0.859809L18.2678 0.857157C18.2498 0.824007 18.2323 0.787627 18.2113 0.743109L18.2033 0.72611L18.2033 0.726089C18.1853 0.687641 18.1642 0.64277 18.1417 0.598905C18.0907 0.499266 18.0194 0.378008 17.9079 0.271177C17.6592 0.0135835 17.2746 -0.0613526 16.9539 0.0500508C16.6581 0.145424 16.4849 0.384829 16.3902 0.575752C15.8093 1.66959 15.2267 2.76293 14.644 3.85651L14.6439 3.8566L14.6438 3.85687L14.6437 3.85696C14.0603 4.95184 13.4768 6.04697 12.8949 7.14268L12.8944 7.14359C12.3667 8.1445 12.1265 9.33208 12.3549 10.4766C12.7716 12.6723 14.7532 14.4936 17.0194 14.6039C19.1123 14.7217 21.0919 13.3243 21.862 11.4353C22.3084 10.4003 22.3577 9.21119 22.0217 8.14274C21.872 7.61088 21.6106 7.12708 21.3729 6.68696L21.3649 6.67201L21.3644 6.6711L20.1194 4.33319L20.1178 4.33022C19.5018 3.17333 18.8858 2.01623 18.2693 0.859815ZM12.6285 9.91211C12.641 10.0789 12.6635 10.2451 12.6964 10.4101C13.0841 12.4572 14.9391 14.1549 17.0376 14.2564C18.9694 14.3658 20.8222 13.068 21.5411 11.3007C21.8058 10.6884 21.9204 10.0157 21.8868 9.35075C21.9203 10.0156 21.8057 10.6881 21.541 11.3003C20.8222 13.0676 18.9694 14.3654 17.0376 14.256C14.9391 14.1545 13.0841 12.4568 12.6964 10.4097C12.6635 10.2449 12.641 10.0787 12.6285 9.91211ZM20.7298 9.40255C20.7044 8.89031 20.5736 8.38482 20.3273 7.9323C19.3034 6.00918 18.2796 4.08606 17.255 2.16367L16.4597 3.65522C15.6915 5.09552 14.9233 6.53593 14.1594 7.97795C13.8693 8.52867 13.7469 9.15628 13.7785 9.77727C13.747 9.1564 13.8694 8.52894 14.1594 7.97833C14.9232 6.53647 15.6913 5.09621 16.4594 3.65606L16.4595 3.65592L16.4597 3.65562L17.0578 2.53395L17.255 2.16405L17.4521 2.53398C18.4102 4.33182 19.3677 6.13025 20.3252 7.92869L20.3263 7.93067L20.3273 7.93268C20.5735 8.3851 20.7044 8.89044 20.7298 9.40255ZM15.552 12.2862C14.2019 11.4774 13.7325 9.53591 14.4671 8.14084C15.2305 6.69964 15.9983 5.26019 16.7662 3.82035L16.7663 3.82023L16.7663 3.82011L16.7665 3.81983L17.2549 2.90386C18.177 4.63426 19.0986 6.3652 20.0202 8.09621L20.0202 8.09622L20.0217 8.09902C20.4589 8.90242 20.4937 9.90885 20.1763 10.7834L20.1763 10.7836C19.9071 11.5261 19.3305 12.1528 18.6105 12.4716L18.61 12.4718C17.6404 12.9027 16.4542 12.8434 15.556 12.2886L15.556 12.2886L15.552 12.2862ZM15.2514 9.06624C15.5093 8.92639 15.8615 9.02566 16.01 9.27783C16.0812 9.38597 16.0895 9.51331 16.0976 9.63944C16.1007 9.68657 16.1037 9.73353 16.11 9.77926C16.1361 10.1524 16.3564 10.5198 16.7057 10.6727C16.8571 10.75 17.024 10.765 17.1906 10.78L17.1907 10.78C17.2584 10.7861 17.326 10.7922 17.3926 10.8024C17.6969 10.8633 17.9005 11.2046 17.8187 11.5031C17.8155 11.5172 17.8117 11.5311 17.8074 11.5448C17.8117 11.531 17.8155 11.5171 17.8187 11.5028C17.9006 11.2043 17.697 10.863 17.3927 10.8021C17.3261 10.7919 17.2584 10.7858 17.1907 10.7797L17.1907 10.7797C17.0241 10.7647 16.8572 10.7497 16.7057 10.6724C16.3565 10.5196 16.1362 10.1522 16.1101 9.779C16.1038 9.73327 16.1008 9.68631 16.0977 9.63918C16.0896 9.51304 16.0813 9.3857 16.0101 9.27757C15.8616 9.0254 15.5094 8.92613 15.2514 9.06598C15.1031 9.13644 15.017 9.25447 14.9728 9.3922C15.017 9.25458 15.1031 9.13666 15.2514 9.06624ZM16.4338 9.48116C16.4215 9.37476 16.3942 9.23184 16.3056 9.09368C16.062 8.6893 15.5142 8.5337 15.0939 8.75563C14.7917 8.90274 14.6539 9.16977 14.6075 9.4221C14.5629 9.66427 14.5959 9.91346 14.645 10.1068C14.9051 11.2507 15.9392 12.2271 17.1588 12.289C17.6033 12.3345 18.0501 12.0389 18.1564 11.5872C18.2846 11.1021 17.9666 10.5621 17.4609 10.4609L17.461 10.4606L17.4457 10.4582C17.3765 10.4476 17.3088 10.441 17.2496 10.4357L17.2206 10.433C17.1711 10.4286 17.1283 10.4247 17.0854 10.4194C16.985 10.407 16.9175 10.3898 16.8639 10.3625L16.8642 10.3619L16.8453 10.3537C16.6336 10.261 16.4758 10.0209 16.4572 9.75473L16.458 9.75468L16.4548 9.73145C16.4509 9.70333 16.4485 9.67175 16.4457 9.628L16.4449 9.61617C16.4425 9.57785 16.4393 9.52947 16.4338 9.48116Z" clip-rule="evenodd"/><path fill="#76C3F9" fill-rule="evenodd" d="M14.3826 15.0121C13.8433 14.8451 13.2847 14.685 12.7033 14.5914C11.9788 14.4755 11.2381 14.461 10.5095 14.5497C9.87768 14.6246 9.27225 14.7845 8.68857 14.9594C8.49128 15.0186 8.29859 15.0787 8.10812 15.1381L8.10809 15.1381C7.72523 15.2575 7.35138 15.3741 6.96732 15.4742C6.46743 15.6035 5.95699 15.6701 5.45386 15.6473L5.44341 15.6472C4.22889 15.6287 3.02132 15.4911 1.8758 15.1418C1.3835 14.9734 0.843043 15.2885 0.711411 15.7672C0.559321 16.2595 0.87408 16.794 1.35803 16.9218C2.42362 17.2545 3.53114 17.4032 4.61885 17.475L4.63977 17.4759C5.35909 17.5087 6.13212 17.544 6.89511 17.4031C7.55458 17.2942 8.19819 17.0912 8.81336 16.8972L8.81347 16.8971C8.9547 16.8526 9.09443 16.8085 9.23251 16.7662C9.98718 16.5347 10.7101 16.3478 11.4588 16.3482L11.4614 16.3481C12.0768 16.3438 12.6774 16.4771 13.2971 16.6586C13.5159 16.7226 13.7434 16.7949 13.9753 16.8686L13.9753 16.8686L13.9753 16.8686L13.9754 16.8686C14.3768 16.9962 14.7914 17.1279 15.1961 17.2281C16.2815 17.5272 17.4333 17.59 18.5453 17.3984C19.2017 17.291 19.8415 17.0872 20.4519 16.8927C20.588 16.8493 20.7225 16.8065 20.8555 16.7652C21.5999 16.5343 22.312 16.3478 23.0498 16.3481C23.8247 16.3481 24.571 16.5478 25.3531 16.7897C25.4683 16.8253 25.5846 16.862 25.702 16.899L25.7022 16.899L25.7023 16.8991C26.3656 17.1082 27.0621 17.3278 27.7815 17.429C28.4183 17.5324 29.0613 17.508 29.6607 17.4852L29.8051 17.4799L29.814 17.4793C30.9269 17.4098 32.0597 17.2627 33.1501 16.9225C33.5975 16.804 33.9082 16.34 33.8224 15.8719C33.7806 15.5945 33.6081 15.3714 33.3981 15.2394C33.1873 15.1068 32.9077 15.0473 32.6346 15.1412C31.3772 15.5263 30.0452 15.6519 28.7091 15.6493C27.9874 15.6319 27.2852 15.4134 26.5382 15.181L26.5335 15.1795L26.5021 15.1696C25.6684 14.9066 24.7883 14.629 23.8693 14.5353C22.9066 14.4346 21.926 14.513 20.9922 14.7668C20.5645 14.8705 20.1445 15.0043 19.7382 15.1337L19.5299 15.1998C19.0521 15.3508 18.5895 15.4893 18.1179 15.5753C17.414 15.7038 16.6805 15.665 15.9779 15.4889C15.5695 15.3854 15.1697 15.2594 14.7589 15.13L14.7585 15.1299C14.6344 15.0907 14.5092 15.0513 14.3826 15.0121ZM33.486 16.0804C33.4627 16.3149 33.2874 16.5288 33.0546 16.5873C31.9988 16.9178 30.8938 17.0627 29.7924 17.1315L29.6537 17.1367C29.0464 17.1597 28.4357 17.1827 27.8337 17.0844C27.1442 16.9879 26.478 16.778 25.8124 16.5683C24.9092 16.2838 24.0073 15.9997 23.0499 15.9997C22.1092 15.9993 21.2238 16.2812 20.3371 16.5635C19.7273 16.7576 19.117 16.952 18.4877 17.0547C17.4254 17.238 16.3233 17.1779 15.2842 16.891C14.8865 16.7927 14.4933 16.6676 14.0998 16.5424L14.0998 16.5424C13.2373 16.268 12.3736 15.9932 11.459 15.9997C10.5027 15.9993 9.60149 16.2833 8.69916 16.5677C8.08431 16.7616 7.46892 16.9555 6.83521 17.0598C6.11205 17.1938 5.37295 17.1605 4.64181 17.1272C3.56576 17.0562 2.48537 16.9098 1.45352 16.5866C1.18556 16.5196 0.998497 16.2437 1.02338 15.9734C0.998224 16.2438 1.18536 16.5201 1.45348 16.5871C2.48532 16.9103 3.56572 17.0567 4.64177 17.1277C5.3729 17.161 6.112 17.1943 6.83517 17.0603C7.46888 16.956 8.08426 16.7621 8.69911 16.5682C9.60144 16.2838 10.5026 15.9997 11.4589 16.0002C12.3735 15.9937 13.2372 16.2685 14.0998 16.5429L14.0998 16.5429C14.4932 16.6681 14.8865 16.7932 15.2841 16.8914C16.3232 17.1784 17.4254 17.2385 18.4876 17.0552C19.1169 16.9524 19.7273 16.7581 20.3371 16.5639C21.2237 16.2817 22.1092 15.9997 23.0498 16.0002C24.0072 16.0002 24.9092 16.2843 25.8124 16.5688C26.4779 16.7785 27.1441 16.9884 27.8337 17.0849C28.4356 17.1832 29.0464 17.1601 29.6536 17.1372L29.7923 17.132C30.8937 17.0632 31.9988 16.9183 33.0545 16.5878C33.2875 16.5293 33.4629 16.3151 33.486 16.0804ZM1.0243 18.8971C1.01828 19.0336 1.05867 19.1723 1.14556 19.2801C1.25302 19.4304 1.4333 19.4836 1.60369 19.5338L1.60375 19.5339C1.62637 19.5405 1.64882 19.5472 1.67091 19.554C3.01506 19.9271 4.41573 20.0583 5.80699 20.0568C6.79971 20.0474 7.76054 19.7648 8.70036 19.4692L8.7072 19.467C9.64703 19.1684 10.6114 18.862 11.6104 18.9011C12.4862 18.926 13.3136 19.19 14.1414 19.4541C14.6115 19.6041 15.0817 19.7542 15.561 19.8605C16.6892 20.1278 17.8805 20.1257 19.0058 19.846C19.4692 19.7411 19.9252 19.5957 20.3813 19.4503C21.2544 19.172 22.1277 18.8937 23.0535 18.8989C24.01 18.8993 24.911 19.1834 25.8133 19.4678C26.4776 19.6772 27.1425 19.8869 27.8308 19.9836C28.4336 20.082 29.0451 20.0589 29.6525 20.0359L29.7909 20.0307C30.893 19.9619 31.9995 19.817 33.056 19.4858C33.3018 19.4263 33.4751 19.1923 33.4882 18.9481C33.4753 19.1925 33.3019 19.4268 33.056 19.4864C31.9995 19.8175 30.893 19.9624 29.7909 20.0313L29.6525 20.0364C29.045 20.0594 28.4336 20.0825 27.8308 19.9842C27.1425 19.8874 26.4775 19.6777 25.8132 19.4683C24.911 19.1839 24.01 18.8998 23.0534 18.8994C22.1277 18.8942 21.2544 19.1725 20.3813 19.4508C19.9252 19.5962 19.4692 19.7416 19.0058 19.8465C17.8804 20.1262 16.6892 20.1284 15.561 19.861C15.0817 19.7547 14.6115 19.6046 14.1414 19.4547L14.1413 19.4546C13.3136 19.1905 12.4861 18.9265 11.6104 18.9016C10.6114 18.8626 9.64701 19.1689 8.70717 19.4675L8.70034 19.4697C7.76052 19.7653 6.79968 20.0479 5.80697 20.0573C4.41571 20.0588 3.01504 19.9276 1.67088 19.5545C1.64878 19.5477 1.62631 19.541 1.60367 19.5344C1.43328 19.4841 1.25299 19.4309 1.14554 19.2806C1.05853 19.1727 1.01816 19.0338 1.0243 18.8971ZM14.0213 19.7817C14.4957 19.9331 14.9881 20.0902 15.4832 20.2001C16.6626 20.4793 17.908 20.4773 19.0861 20.1851C19.5633 20.0768 20.0425 19.9241 20.5045 19.7769C20.7094 19.7116 20.9109 19.6474 21.1073 19.5887C21.7645 19.392 22.3992 19.2437 23.0515 19.2474L23.0533 19.2474C23.8272 19.2477 24.5724 19.4472 25.3534 19.6889C25.4689 19.7246 25.5854 19.7614 25.703 19.7985C26.3652 20.0074 27.0604 20.2268 27.7786 20.3282C28.4161 20.4317 29.0599 20.4072 29.6596 20.3844L29.8036 20.379L29.8036 20.3791L29.8126 20.3786C30.9257 20.309 32.0596 20.1621 33.1504 19.8214C33.6706 19.6872 33.9826 19.0885 33.7695 18.5819C33.6029 18.148 33.0925 17.8825 32.6304 18.0411C31.6438 18.3432 30.608 18.4873 29.5629 18.5321C29.4847 18.5341 29.4081 18.5365 29.3327 18.5389L29.3323 18.539C28.9285 18.5518 28.5626 18.5634 28.1988 18.5045L28.1988 18.5044L28.1942 18.5038C27.6975 18.4301 27.2111 18.2909 26.7087 18.134C26.61 18.1032 26.5103 18.0716 26.4097 18.0397L26.4097 18.0397C26.0076 17.9121 25.5918 17.7802 25.1705 17.6783C24.2392 17.4246 23.2612 17.3339 22.2961 17.4284C21.4648 17.504 20.6672 17.7409 19.9141 17.9768L19.9128 17.9772L19.7504 18.0289C18.8728 18.3084 18.0461 18.5718 17.1902 18.5515L17.1858 18.5515C16.5819 18.5448 15.9932 18.4066 15.3843 18.2245C15.1897 18.1664 14.9894 18.1024 14.7855 18.0373L14.7854 18.0373C14.3703 17.9047 13.9406 17.7675 13.5154 17.6652C12.5404 17.401 11.5154 17.3271 10.5126 17.4489C9.87957 17.5235 9.27316 17.6836 8.68859 17.8588C8.49166 17.9178 8.29931 17.9778 8.10917 18.0371C7.72492 18.157 7.34974 18.274 6.96426 18.3742L6.9641 18.3743C6.44664 18.5091 5.91368 18.5723 5.38754 18.5447L5.38756 18.5445L5.37532 18.5442C4.18479 18.5237 3.00098 18.3827 1.87654 18.0415C1.49979 17.9139 1.08325 18.0658 0.859939 18.3681C0.612121 18.6934 0.613706 19.1678 0.868483 19.4912C0.978655 19.6412 1.12207 19.7259 1.24535 19.7791C1.3379 19.8191 1.44276 19.8499 1.51811 19.872L1.56855 19.887L1.56851 19.8872L1.5778 19.8898C2.96108 20.2738 4.39501 20.4068 5.80733 20.4053L5.81027 20.4053C6.86109 20.3953 7.86758 20.0964 8.80476 19.8016L8.8057 19.8013C9.75863 19.4986 10.6666 19.2129 11.5968 19.2493L11.6005 19.2494C12.2392 19.2676 12.8599 19.4228 13.503 19.6188C13.6728 19.6705 13.8458 19.7257 14.0213 19.7817Z" clip-rule="evenodd"/><path fill="#76C3F9" d="M3.15067 21.8289C3.42747 21.7209 3.74268 21.8752 3.87746 22.1274C4.36729 23.0817 4.89481 24.0165 5.39407 24.9657C5.68898 25.599 5.75348 26.3512 5.5158 27.0135C5.27016 27.7069 4.75206 28.3214 4.06513 28.6069C3.59123 28.8105 3.03618 28.7982 2.56736 28.5851C1.54855 28.1221 0.900027 26.9562 1.0435 25.8454C1.08408 25.5063 1.17683 25.1701 1.33987 24.8679C1.82318 23.9737 2.30505 23.0788 2.78619 22.1832C2.86372 22.0289 2.97966 21.8825 3.15067 21.8289ZM2.42461 25.2969C2.08477 25.857 2.09709 26.6229 2.46446 27.1656C2.78112 27.6185 3.45646 27.7171 3.91948 27.4424C4.21368 27.2693 4.38903 26.9475 4.45642 26.6207C4.53395 26.2302 4.52816 25.8026 4.33614 25.4447C4.00716 24.828 3.67384 24.2143 3.34197 23.5998C3.03546 24.165 2.73257 24.7317 2.42461 25.2969Z"/><path fill="#76C3F9" fill-rule="evenodd" d="M3.87729 22.1284C4.15752 22.6743 4.45008 23.2139 4.74264 23.7534C4.96145 24.157 5.18026 24.5605 5.3939 24.9667C5.68882 25.6 5.75331 26.3521 5.51563 27.0144C5.26999 27.7079 4.75189 28.3224 4.06496 28.6079C3.59107 28.8115 3.03601 28.7991 2.56719 28.5861C1.54838 28.1231 0.899857 26.9572 1.04333 25.8464C1.08391 25.5072 1.17666 25.171 1.3397 24.8689M0.698016 25.8034C0.742772 25.4308 0.845892 25.0512 1.03346 24.7036L1.03358 24.7034C1.51602 23.8109 1.99704 22.9175 2.47737 22.0234C2.57084 21.8389 2.74065 21.5985 3.03494 21.5015C3.5038 21.3255 3.98476 21.5912 4.18417 21.9643L4.1869 21.9695L4.18686 21.9695C4.46723 22.5157 4.75477 23.0459 5.04445 23.58C5.2631 23.9831 5.48296 24.3885 5.70187 24.8047L5.70971 24.8196L5.70934 24.8198C6.03834 25.5263 6.11517 26.3733 5.84342 27.1312C5.57037 27.9015 4.99088 28.5991 4.20042 28.9284C3.63407 29.1711 2.97772 29.1549 2.42323 28.9029L2.42321 28.9029C1.26564 28.3768 0.535829 27.0651 0.698016 25.8034ZM3.1505 21.8298C3.4273 21.7219 3.74251 21.8762 3.87729 22.1284L3.1505 21.8298ZM2.72226 25.4785L2.72194 25.4783C2.45166 25.9238 2.46281 26.5415 2.7509 26.9692C2.95043 27.2519 3.41493 27.338 3.7418 27.1441L3.74279 27.1435C3.92602 27.0357 4.06048 26.8166 4.1152 26.5526C4.18407 26.2047 4.1684 25.8694 4.02933 25.6101L4.02895 25.6094C3.80143 25.1829 3.57193 24.7581 3.34187 24.3326C3.31308 24.386 3.28428 24.4394 3.25547 24.4929C3.08082 24.8169 2.90569 25.1419 2.73 25.4643L2.72226 25.4785ZM3.14394 23.9666C3.07868 24.0875 3.0135 24.2084 2.94831 24.3294C2.77426 24.6523 2.60018 24.9753 2.42444 25.2978C2.0846 25.8579 2.09692 26.6239 2.46429 27.1666C2.78095 27.6195 3.45629 27.718 3.91931 27.4434C4.21351 27.2702 4.38886 26.9485 4.45625 26.6217C4.53379 26.2311 4.52799 25.8036 4.33597 25.4456C4.08509 24.9754 3.83169 24.5068 3.57833 24.0383C3.56538 24.0144 3.55243 23.9905 3.53948 23.9665C3.47356 23.8446 3.40765 23.7227 3.3418 23.6008C3.27571 23.7227 3.20978 23.8446 3.14394 23.9666ZM2.78602 22.1842C2.86355 22.0298 2.97949 21.8835 3.1505 21.8298L2.78602 22.1842Z" clip-rule="evenodd"/><path fill="#76C3F9" d="M17.0574 21.8302C17.3349 21.7207 17.6552 21.8707 17.79 22.1265C18.1378 22.8113 18.5153 23.4808 18.8754 24.1591C19.1153 24.6257 19.4261 25.0699 19.5145 25.5981C19.7768 26.743 19.1667 28.0125 18.1226 28.5408C17.6668 28.7741 17.1161 28.8219 16.6328 28.6444C15.8987 28.3814 15.3386 27.7408 15.0835 27.0147C14.8379 26.3336 14.9111 25.559 15.2285 24.9148C15.6995 24.0337 16.1777 23.1569 16.648 22.2765C16.7407 22.0954 16.8494 21.8954 17.0574 21.8302ZM16.3103 25.3481C16.0002 25.8858 16.0263 26.6003 16.3487 27.1256C16.7299 27.7321 17.7269 27.7524 18.1342 27.164C18.5001 26.622 18.5139 25.8575 18.1747 25.2989C17.8653 24.7337 17.5632 24.1649 17.2552 23.5989C16.9407 24.183 16.6255 24.7656 16.3103 25.3481Z"/><path fill="#76C3F9" fill-rule="evenodd" d="M18.1001 21.9698C18.3182 22.3992 18.5453 22.8174 18.775 23.2404C18.9104 23.4898 19.0467 23.7408 19.1826 23.9967L19.1848 24.0008C19.2389 24.106 19.297 24.2106 19.3586 24.3213L19.368 24.3382C19.432 24.4532 19.4994 24.5748 19.5623 24.6996C19.687 24.9467 19.8026 25.2221 19.8558 25.5312C20.1487 26.8322 19.4606 28.2546 18.2795 28.8521C17.7442 29.1256 17.0938 29.1849 16.5139 28.9723C15.6666 28.6682 15.0395 27.9394 14.7556 27.1322C14.4751 26.3533 14.5618 25.4812 14.9162 24.7619L14.9213 24.7515C15.1531 24.3178 15.3868 23.8854 15.6199 23.4537L15.6322 23.4309C15.8689 22.9923 16.1052 22.5546 16.3395 22.1161C16.3417 22.1117 16.344 22.1072 16.3464 22.1026C16.429 21.9404 16.5933 21.6181 16.941 21.5029C17.4061 21.3267 17.8955 21.5813 18.0977 21.9651L18.1001 21.9698ZM17.0572 21.831C17.3348 21.7216 17.655 21.8715 17.7898 22.1273C18.0096 22.5601 18.2413 22.9868 18.473 23.4134C18.6079 23.6618 18.7428 23.9103 18.8753 24.1599C18.9321 24.2703 18.9928 24.3796 19.0537 24.4889C19.2499 24.8416 19.4469 25.1958 19.5144 25.5989C19.7767 26.7438 19.1666 28.0134 18.1224 28.5416C17.6666 28.7749 17.1159 28.8227 16.6326 28.6452C15.8986 28.3822 15.3385 27.7416 15.0834 27.0156C14.8378 26.3344 14.9109 25.5598 15.2283 24.9156C15.4598 24.4826 15.693 24.0506 15.9262 23.6187C16.1675 23.1718 16.4087 22.7251 16.6478 22.2773C16.7406 22.0962 16.8493 21.8962 17.0572 21.831ZM16.6116 25.5228C16.3688 25.9437 16.3859 26.5206 16.6441 26.9427C16.7605 27.1267 16.984 27.2404 17.2388 27.2458C17.4937 27.2512 17.7223 27.147 17.8468 26.9684C18.1345 26.5406 18.1464 25.9238 17.8771 25.4802L17.8691 25.4669C17.6976 25.1537 17.5264 24.835 17.3556 24.5178C17.3222 24.4558 17.2889 24.3939 17.2555 24.332C17.0426 24.7265 16.8294 25.1205 16.6164 25.5143L16.6116 25.5228ZM17.0578 23.9658C16.8089 24.4272 16.5596 24.888 16.3103 25.3488C16.0001 25.8864 16.0261 26.6011 16.3486 27.1264C16.7297 27.7329 17.7268 27.7532 18.134 27.1648C18.4999 26.6228 18.5137 25.8584 18.1746 25.2997C18.0027 24.9857 17.833 24.6706 17.6634 24.3554C17.5934 24.2255 17.5234 24.0955 17.4532 23.9655C17.3874 23.8435 17.3213 23.7216 17.2551 23.5997C17.1893 23.7218 17.1236 23.8438 17.0578 23.9658Z" clip-rule="evenodd"/><path fill="#76C3F9" d="M10.1075 24.7277C10.3662 24.6291 10.6654 24.753 10.8067 24.9842C11.2799 25.8827 11.7661 26.7754 12.2494 27.6689C12.6313 28.342 12.7327 29.1826 12.4704 29.9159C12.1342 30.8956 11.1734 31.7629 10.0865 31.6397C8.93867 31.4825 8.0829 30.3862 7.98798 29.2674C7.94813 28.7152 8.07276 28.1493 8.34811 27.6674C8.82491 26.7899 9.2959 25.9088 9.77197 25.0305C9.84299 24.8929 9.9582 24.7762 10.1075 24.7277ZM9.25533 28.4485C9.04881 28.9963 9.10243 29.684 9.48575 30.1441C9.88936 30.6115 10.706 30.6093 11.1111 30.1449C11.4937 29.6818 11.5545 28.9891 11.3371 28.4398C11.0045 27.7862 10.6444 27.1471 10.2988 26.5001C9.95168 27.15 9.5872 27.7913 9.25533 28.4485Z"/><path fill="#76C3F9" fill-rule="evenodd" d="M11.1153 24.8222L11.1147 24.8226C11.5068 25.5672 11.9079 26.3078 12.3099 27.0501C12.3912 27.2003 12.4726 27.3505 12.5539 27.5008C12.9794 28.2529 13.0969 29.1961 12.7989 30.0315C12.4285 31.1079 11.3486 32.1335 10.0473 31.986L10.0393 31.9851L10.0393 31.985C8.6994 31.8015 7.7472 30.5452 7.64132 29.2973L7.64095 29.2929L7.64098 29.2929C7.59636 28.6748 7.73506 28.0412 8.04415 27.4986C8.30103 27.0259 8.55449 26.5553 8.80832 26.084C9.02601 25.6798 9.24397 25.2751 9.46459 24.8681C9.56587 24.6735 9.74084 24.4844 9.99167 24.4C10.4239 24.2401 10.8876 24.4497 11.1037 24.8032L11.1153 24.8222ZM10.1075 24.7282C9.95827 24.7767 9.84305 24.8934 9.77204 25.0311C9.55246 25.4362 9.33395 25.8419 9.11545 26.2475C8.86025 26.7214 8.60505 27.1952 8.34818 27.6679C8.07283 28.1498 7.94819 28.7157 7.98805 29.2679C8.08297 30.3867 8.93874 31.483 10.0865 31.6403C11.1734 31.7635 12.1343 30.8961 12.4705 29.9164C12.7328 29.1831 12.6314 28.3426 12.2495 27.6694C12.1678 27.5184 12.086 27.3674 12.0042 27.2164C11.6022 26.474 11.2 25.7314 10.8068 24.9847C10.6655 24.7536 10.3662 24.6297 10.1075 24.7282ZM9.57485 28.5884C9.41094 29.0399 9.46919 29.5788 9.75112 29.9195C9.87611 30.0627 10.077 30.1466 10.2977 30.1465C10.518 30.1464 10.7198 30.0624 10.846 29.92C11.1295 29.5735 11.1902 29.0294 11.0193 28.5829C10.8065 28.1653 10.5845 27.7576 10.36 27.345C10.3395 27.3075 10.3191 27.2699 10.2986 27.2323C10.2766 27.2725 10.2547 27.3127 10.2328 27.3529C10.0079 27.7647 9.78603 28.1711 9.57485 28.5884ZM9.25539 28.4491C9.47147 28.0212 9.70138 27.6 9.9313 27.1788C9.98791 27.0751 10.0445 26.9714 10.1009 26.8676C10.1673 26.7455 10.2334 26.6232 10.2988 26.5006C10.3643 26.6232 10.4304 26.7456 10.4966 26.8678C10.5517 26.9694 10.607 27.0709 10.6622 27.1724C10.8911 27.5931 11.12 28.0136 11.3372 28.4404C11.5546 28.9896 11.4937 29.6824 11.1111 30.1454C10.7061 30.6099 9.88943 30.612 9.48582 30.1447C9.1025 29.6845 9.04888 28.9969 9.25539 28.4491Z" clip-rule="evenodd"/><path fill="#76C3F9" d="M24.0202 24.7268C24.223 24.6529 24.4665 24.7065 24.6172 24.8623C24.7643 24.9985 24.8259 25.1949 24.9194 25.3666C25.3527 26.1659 25.7817 26.9673 26.215 27.7658C26.4121 28.1354 26.5077 28.5528 26.5295 28.9694C26.5628 29.957 25.9991 30.9418 25.1303 31.4128C24.6477 31.678 24.0499 31.7309 23.5368 31.5237C22.7043 31.1983 22.1057 30.3983 21.9369 29.5317C21.8195 28.8991 21.9449 28.2267 22.2608 27.6673C22.7376 26.7898 23.2093 25.9086 23.6847 25.0304C23.7557 24.8927 23.8702 24.7754 24.0202 24.7268ZM23.2687 28.2426C22.9557 28.781 22.9811 29.4976 23.305 30.0244C23.6847 30.6302 24.681 30.6512 25.089 30.0657C25.4563 29.5223 25.4701 28.7549 25.1295 28.1941C24.8209 27.6296 24.518 27.0622 24.2115 26.497C23.8955 27.0782 23.5861 27.6629 23.2687 28.2426Z"/><path fill="#76C3F9" d="M31.3334 21.6056C31.5363 21.5317 31.7798 21.5853 31.9305 21.7411C32.0776 21.8773 32.1392 22.0737 32.2326 22.2454C32.6659 23.0447 33.0949 23.8461 33.5282 24.6446C33.7253 25.0142 33.821 25.4316 33.8427 25.8482C33.8761 26.8359 33.3123 27.8206 32.4435 28.2916C31.9609 28.5568 31.3631 28.6097 30.8501 28.4025C30.0175 28.0771 29.419 27.2772 29.2501 26.4105C29.1327 25.7779 29.2581 25.1055 29.574 24.5461C30.0508 23.6686 30.5225 22.7875 30.9979 21.9092C31.0689 21.7716 31.1834 21.6542 31.3334 21.6056ZM30.582 25.1214C30.2689 25.6598 30.2943 26.3765 30.6182 26.9033C30.9979 27.509 31.9942 27.53 32.4022 26.9446C32.7696 26.4011 32.7833 25.6337 32.4428 25.0729C32.1341 24.5084 31.8312 23.941 31.5247 23.3758C31.2088 23.957 30.8993 24.5417 30.582 25.1214Z"/><path fill="#76C3F9" fill-rule="evenodd" d="M25.2249 25.2012L25.2251 25.2017C25.437 25.5925 25.6446 25.9778 25.8519 26.3625C26.0735 26.7738 26.2948 27.1845 26.5207 27.6007L26.5219 27.603L26.5219 27.603C26.7479 28.0267 26.853 28.4962 26.8768 28.9522L26.8772 28.9586L26.8771 28.9586C26.9149 30.0776 26.2811 31.1851 25.2968 31.7191C24.7303 32.0301 24.0246 32.0962 23.4082 31.8479C22.452 31.4735 21.7838 30.5671 21.5952 29.5991L21.5946 29.5961L21.5946 29.5961C21.4616 28.8793 21.6036 28.1253 21.9562 27.4996C22.2301 26.9955 22.5015 26.4917 22.7733 25.9873C22.974 25.6148 23.1748 25.2419 23.377 24.8684C23.4778 24.6746 23.6525 24.483 23.9068 24.3986C24.2319 24.2828 24.6135 24.3648 24.8604 24.6143C24.9729 24.7207 25.0452 24.8417 25.0971 24.9417C25.1205 24.9868 25.1423 25.0328 25.1609 25.0721C25.1632 25.0769 25.1654 25.0816 25.1676 25.0862C25.1889 25.1309 25.2066 25.1676 25.2249 25.2012ZM24.6171 24.8632C24.4664 24.7074 24.2229 24.6538 24.02 24.7277C23.87 24.7762 23.7555 24.8936 23.6845 25.0313C23.4827 25.4042 23.2815 25.7777 23.0803 26.1511C22.8076 26.6572 22.535 27.1633 22.2606 27.6682C21.9447 28.2276 21.8194 28.9 21.9367 29.5326C22.1056 30.3992 22.7041 31.1992 23.5367 31.5246C24.0497 31.7318 24.6475 31.6789 25.1301 31.4137C25.9989 30.9427 26.5627 29.9579 26.5293 28.9703C26.5076 28.5536 26.4119 28.1363 26.2148 27.7667C25.9908 27.3538 25.7679 26.9401 25.545 26.5264C25.3367 26.14 25.1285 25.7535 24.9192 25.3675C24.8934 25.32 24.87 25.2707 24.8465 25.2212C24.7852 25.0918 24.7235 24.9618 24.6171 24.8632ZM23.5695 28.4185L23.5694 28.4184C23.3244 28.8399 23.3409 29.4185 23.6004 29.8417C23.7161 30.0252 23.939 30.1391 24.194 30.1448C24.4488 30.1505 24.6773 30.0469 24.802 29.8696C25.0906 29.4406 25.1026 28.8212 24.832 28.3756L24.8238 28.3621L24.8241 28.3619C24.6369 28.0196 24.451 27.6746 24.2657 27.3308C24.2476 27.2972 24.2295 27.2637 24.2114 27.2301C24.1753 27.2971 24.1393 27.3642 24.1032 27.4314C23.9272 27.7589 23.7506 28.0878 23.5738 28.4106L23.5695 28.4185ZM24.0135 26.8635C23.9406 26.9988 23.8678 27.1342 23.7951 27.2697C23.6204 27.5948 23.4457 27.92 23.2686 28.2435C22.9555 28.7819 22.9809 29.4985 23.3048 30.0253C23.6845 30.6311 24.6808 30.6521 25.0888 30.0666C25.4562 29.5232 25.4699 28.7558 25.1294 28.195C24.9425 27.8532 24.7577 27.5103 24.5729 27.1675C24.5183 27.0661 24.4637 26.9648 24.409 26.8634C24.3432 26.7415 24.2773 26.6197 24.2113 26.4979C24.1451 26.6196 24.0792 26.7415 24.0135 26.8635Z" clip-rule="evenodd"/><path fill="#76C3F9" fill-rule="evenodd" d="M32.5381 22.08L32.5384 22.0805C32.7503 22.4713 32.9579 22.8566 33.1652 23.2413C33.3868 23.6526 33.6081 24.0633 33.8339 24.4795L33.8351 24.4817L33.8351 24.4817C34.0611 24.9055 34.1663 25.375 34.1901 25.8309L34.1904 25.8373L34.1903 25.8373C34.2281 26.9564 33.5944 28.0638 32.6101 28.5979C32.0436 28.9089 31.3378 28.975 30.7214 28.7267C29.7652 28.3522 29.097 27.4458 28.9084 26.4779L28.9078 26.4749L28.9078 26.4749C28.7748 25.7581 28.9168 25.0041 29.2694 24.3784C29.5433 23.8743 29.8148 23.3705 30.0865 22.8661C30.2872 22.4936 30.4881 22.1207 30.6902 21.7472C30.7911 21.5534 30.9657 21.3618 31.22 21.2774C31.5451 21.1616 31.9267 21.2436 32.1736 21.4931C32.2862 21.5994 32.3584 21.7205 32.4103 21.8205C32.4338 21.8656 32.4555 21.9116 32.4742 21.9509C32.4765 21.9557 32.4787 21.9604 32.4809 21.965C32.5021 22.0097 32.5198 22.0464 32.5381 22.08ZM31.9303 21.742C31.7796 21.5862 31.5361 21.5326 31.3332 21.6065C31.1832 21.655 31.0687 21.7724 30.9977 21.9101C30.7959 22.283 30.5947 22.6565 30.3935 23.0299C30.1209 23.536 29.8482 24.0421 29.5739 24.547C29.2579 25.1064 29.1326 25.7788 29.25 26.4114C29.4188 27.278 30.0173 28.078 30.8499 28.4033C31.3629 28.6106 31.9607 28.5577 32.4433 28.2925C33.3121 27.8215 33.8759 26.8367 33.8426 25.8491C33.8208 25.4324 33.7252 25.0151 33.5281 24.6455C33.304 24.2326 33.0811 23.8189 32.8582 23.4052C32.65 23.0188 32.4417 22.6323 32.2325 22.2463C32.2066 22.1988 32.1832 22.1495 32.1598 22.1C32.0984 21.9706 32.0367 21.8405 31.9303 21.742ZM30.8827 25.2973L30.8826 25.2972C30.6376 25.7186 30.6541 26.2973 30.9136 26.7205C31.0293 26.904 31.2522 27.0179 31.5072 27.0236C31.762 27.0293 31.9906 26.9257 32.1152 26.7484C32.4039 26.3193 32.4158 25.7 32.1452 25.2544L32.137 25.2409L32.1373 25.2407C31.9501 24.8984 31.7642 24.5534 31.5789 24.2096C31.5608 24.176 31.5427 24.1424 31.5246 24.1089C31.4886 24.1759 31.4525 24.243 31.4164 24.3102C31.2405 24.6377 31.0638 24.9666 30.887 25.2894L30.8827 25.2973ZM31.3267 23.7423C31.2538 23.8776 31.181 24.013 31.1083 24.1484C30.9336 24.4736 30.7589 24.7988 30.5818 25.1223C30.2688 25.6607 30.2941 26.3773 30.618 26.9041C30.9977 27.5099 31.9941 27.5309 32.402 26.9454C32.7694 26.402 32.7832 25.6346 32.4426 25.0737C32.2557 24.7319 32.0709 24.3891 31.8862 24.0463C31.8315 23.9449 31.7769 23.8435 31.7222 23.7422C31.6564 23.6203 31.5906 23.4985 31.5245 23.3767C31.4584 23.4984 31.3925 23.6203 31.3267 23.7423Z" clip-rule="evenodd"/></svg>