<svg xmlns="http://www.w3.org/2000/svg" width="28" height="32" fill="none" viewBox="0 0 28 32"><path fill="#76C3F9" fill-rule="evenodd" d="M11.7123 0.420952C11.6394 0.429483 11.5678 0.437862 11.498 0.445327C10.2066 1.34914 9.27829 2.64445 8.35909 3.927C8.13435 4.2406 7.91014 4.55342 7.68132 4.85958C5.12065 8.56205 2.63135 12.4227 1.2297 16.7637C0.301919 20.1176 1.00703 23.864 3.05385 26.6497C4.74669 29.2361 7.58996 30.7242 10.4675 31.4652C11.6979 31.5502 12.9397 31.5472 14.17 31.4682C15.88 31.0083 17.5786 30.358 19.0316 29.2947C21.4295 27.5929 23.0567 24.8805 23.6848 21.9806C23.8389 20.0034 23.8475 17.9969 23.3422 16.0695C25.3348 15.1117 26.8535 13.1579 27.1047 10.8937C27.0076 7.85027 24.3299 5.01776 21.2925 5.20816C20.69 5.14823 20.1621 5.41063 19.6358 5.67225C19.1073 5.93497 18.5804 6.19689 17.9811 6.13085C17.4158 5.4649 16.9088 4.74615 16.4016 4.02715C15.5948 2.88342 14.7876 1.73905 13.7447 0.805614C13.2302 0.243247 12.4114 0.339105 11.7123 0.420952ZM11.3293 5.92584C11.5698 5.58088 11.81 5.23634 12.049 4.8918C12.1204 4.89034 12.2274 4.88888 12.3345 4.88741C12.4415 4.88595 12.5486 4.88448 12.6199 4.88302C13.0483 5.50945 13.4886 6.12724 13.929 6.74517C14.6069 7.69621 15.2849 8.64756 15.92 9.6312C16.0126 9.76676 16.1039 9.90348 16.1953 10.0403C16.6055 10.6543 17.0167 11.2696 17.5443 11.7871C17.9766 11.448 18.3929 11.0874 18.8091 10.7268C19.4894 10.1375 20.1693 9.54848 20.9186 9.05416C21.5266 8.89305 22.3231 8.83447 22.7427 9.4203C23.4079 9.96513 23.2708 10.9786 23.0881 11.7256C22.2313 12.6637 20.9585 12.9626 19.7428 13.2481C19.4478 13.3174 19.1561 13.3859 18.8746 13.4626C18.7733 14.4249 19.1185 15.2958 19.4647 16.1691C19.7623 16.9198 20.0606 17.6723 20.0764 18.4861C20.1107 19.646 20.1392 20.8148 19.9993 21.9689C19.357 23.8963 18.1124 25.6596 16.3625 26.6702C14.2557 27.9678 11.5323 28.1934 9.27995 27.1711C7.07041 26.266 5.3947 24.2624 4.65819 21.9659C4.49832 20.5482 4.46692 19.0924 4.66961 17.6776C6.14474 13.3618 8.75409 9.61935 11.3293 5.92584ZM14.4812 11.7751C13.8789 10.955 13.0424 9.94147 11.9234 10.1699C10.8032 10.6911 10.1236 11.7932 9.49052 12.82L9.46835 12.856C8.44637 14.5578 7.4929 16.3388 6.94194 18.2632C6.93529 18.3483 6.92838 18.4339 6.92143 18.52C6.81495 19.8383 6.70014 21.2597 7.41297 22.4256C8.40069 24.2387 10.3876 25.6213 12.4629 25.4133C14.3756 25.5334 16.1255 24.23 17.1304 22.6423C17.9367 21.4707 17.8306 19.9974 17.7319 18.6282C17.7223 18.4947 17.7128 18.3622 17.7042 18.231C17.0076 15.9111 15.8229 13.764 14.4812 11.7751ZM11.4479 14.1613C11.6523 13.8122 11.8567 13.4632 12.0547 13.1108C12.1218 13.1094 12.2218 13.1064 12.3217 13.1035C12.4216 13.1006 12.5215 13.0977 12.5885 13.0962C12.6692 13.2338 12.7501 13.3715 12.8312 13.5092C13.7967 15.1511 14.7712 16.8082 15.369 18.6323C15.5346 19.64 15.6145 20.8233 14.9322 21.6611C14.3613 22.4432 13.4221 23.0436 12.4487 23.0231C10.8044 23.1667 9.23141 21.7138 9.16004 20.0266C9.02403 19.0083 9.45251 18.0675 9.8631 17.1661C9.91785 17.0459 9.97228 16.9263 10.025 16.8074C10.4357 15.8895 10.942 15.0251 11.4479 14.1613Z" clip-rule="evenodd"/></svg>