<svg xmlns="http://www.w3.org/2000/svg" fill="none" viewBox="0 0 25 25"><defs><linearGradient id="a" x1="12.728" x2="12.728" y1="7" y2="19.342" gradientUnits="userSpaceOnUse"><stop offset="0" stop-color="#FF4EBE"/><stop offset="1" stop-color="#FF7E7E"/></linearGradient></defs><rect width="25" height="25" fill="#fff" rx="12.5"/><path fill="url(#a)" d="m9.0003 10.143c-0.00188 0.0445 0.00534 0.0888 0.02122 0.1303s0.04008 0.0793 0.07112 0.1111 0.06826 0.057 0.10936 0.0739c0.04111 0.0169 0.08524 0.0252 0.12968 0.0244h1.1343c0.1898 0 0.341-0.1554 0.3658-0.3438 0.1237-0.90198 0.7425-1.5592 1.8452-1.5592 0.9433 0 1.8068 0.47162 1.8068 1.606 0 0.8731-0.5143 1.2746-1.3269 1.8851-0.9254 0.6724-1.6582 1.4575-1.606 2.7321l0.0041 0.2984c0.0015 0.0902 0.0383 0.1762 0.1026 0.2395 0.0644 0.0633 0.151 0.0988 0.2412 0.0987h1.1151c0.0912 0 0.1786-0.0362 0.2431-0.1006 0.0645-0.0645 0.1007-0.1519 0.1007-0.2431v-0.1444c0-0.9872 0.3753-1.2746 1.3887-2.0432 0.8374-0.6367 1.7105-1.3434 1.7105-2.827 0-2.0776-1.7545-3.0814-3.6754-3.0814-1.7421 0-3.6506 0.81125-3.7812 3.1432zm2.1409 7.9242c0 0.7328 0.5843 1.2746 1.3887 1.2746 0.8374 0 1.4135-0.5418 1.4135-1.2746 0-0.759-0.5775-1.2925-1.4149-1.2925-0.803 0-1.3873 0.5335-1.3873 1.2925z"/></svg>