<?xml version="1.0" encoding="UTF-8"?>
<svg fill="none" viewBox="0 0 56 56" xmlns="http://www.w3.org/2000/svg">
    <defs>
        <filter id="c" x="0" y="0" width="56" height="60" color-interpolation-filters="sRGB"
            filterUnits="userSpaceOnUse">
            <feFlood flood-opacity="0" result="BackgroundImageFix" />
            <feBlend in="SourceGraphic" in2="BackgroundImageFix" result="shape" />
            <feColorMatrix in="SourceAlpha" result="hardAlpha"
                values="0 0 0 0 0 0 0 0 0 0 0 0 0 0 0 0 0 0 127 0" />
            <feOffset dy="4" />
            <feGaussianBlur stdDeviation="9" />
            <feComposite in2="hardAlpha" k2="-1" k3="1" operator="arithmetic" />
            <feColorMatrix values="0 0 0 0 0 0 0 0 0 0 0 0 0 0 0 0 0 0 0.1 0" />
            <feBlend in2="shape" result="effect1_innerShadow" />
        </filter>
        <linearGradient id="b" x1="28" x2="28" y1="1" y2="55" gradientUnits="userSpaceOnUse">
            <stop stop-color="#fff" offset="0" />
            <stop stop-color="#fff" stop-opacity="0" offset="1" />
        </linearGradient>
        <linearGradient id="a" x1="28.3" x2="28.3" y1="16.6" y2="40" gradientUnits="userSpaceOnUse">
            <stop stop-color="#FF4EBE" offset="0" />
            <stop stop-color="#FF7E7E" offset="1" />
        </linearGradient>
    </defs>
    <g filter="url(#c)">
        <rect x="1" y="1" width="54" height="54" rx="27" fill="#fff" />
    </g>
    <rect x=".5" y=".5" width="55" height="55" rx="27.5" stroke="#938E8E" />
    <rect x=".5" y=".5" width="55" height="55" rx="27.5" stroke="url(#b)" />
    <path
        d="m19.791 37.873h4.2545c0.2822 0 0.5526 0.1122 0.7522 0.3116 0.1994 0.1994 0.3115 0.47 0.3115 0.752s-0.1121 0.5526-0.3115 0.752c-0.1996 0.1995-0.47 0.3117-0.7522 0.3117h-4.2545c-0.8463 0-1.6579-0.3363-2.2563-0.9346-0.5985-0.5986-0.9346-1.4101-0.9346-2.2564v-4.2545c0-0.282 0.112-0.5526 0.3115-0.752 0.1995-0.1995 0.47-0.3116 0.7521-0.3116 0.2822 0 0.5526 0.1121 0.7522 0.3116 0.1994 0.1994 0.3114 0.47 0.3114 0.752v4.2545c0 0.1377 0.0267 0.2724 0.0772 0.3976 0.0529 0.1314 0.1321 0.2524 0.2343 0.3545 0.1996 0.1994 0.47 0.3116 0.7522 0.3116zm18.393-6.0702c0.1995-0.1995 0.47-0.3116 0.7521-0.3116 0.2822 0 0.5526 0.1121 0.7522 0.3116 0.1994 0.1994 0.3115 0.47 0.3115 0.752v4.2545c0 0.8463-0.3362 1.6578-0.9346 2.2564-0.5984 0.5983-1.41 0.9346-2.2563 0.9346h-4.2546c-0.1754 0-0.3463-0.0434-0.4984-0.1244-0.0926-0.0491-0.1783-0.1119-0.2537-0.1873-0.1995-0.1994-0.3115-0.47-0.3115-0.752s0.112-0.5526 0.3115-0.752 0.47-0.3116 0.7521-0.3116h4.2546c0.2821 0 0.5526-0.1122 0.7521-0.3116 0.1995-0.1995 0.3115-0.47 0.3115-0.7521v-4.2545c0-0.282 0.1121-0.5526 0.3115-0.752zm-5.6297-15.202h4.2546c0.8463 0 1.6579 0.3362 2.2563 0.9345 0.5984 0.5986 0.9346 1.4101 0.9346 2.2564v4.2545c0 0.282-0.1121 0.5526-0.3115 0.752-0.0822 0.0821-0.1765 0.1496-0.2785 0.2005-0.1458 0.0725-0.3077 0.1111-0.4737 0.1111-0.2821 0-0.5526-0.1121-0.7521-0.3116-0.1994-0.1994-0.3115-0.47-0.3115-0.752v-4.2545c0-0.1761-0.0438-0.3477-0.125-0.5004-0.049-0.092-0.1116-0.1769-0.1865-0.2517-0.1995-0.1994-0.47-0.3116-0.7521-0.3116h-4.2546c-0.2821 0-0.5526-0.1121-0.7521-0.3116-0.1995-0.1994-0.3115-0.47-0.3115-0.752 0-0.195 0.0535-0.3843 0.1524-0.5484 0.0442-0.0735 0.0974-0.1421 0.1591-0.2036 0.1995-0.1995 0.47-0.3116 0.7521-0.3116zm-14.139 8.1974c-0.1996 0.1995-0.47 0.3116-0.7522 0.3116-0.2821 0-0.5526-0.1121-0.7521-0.3116-0.1995-0.1994-0.3115-0.47-0.3115-0.752v-4.2545c0-0.8463 0.3361-1.6578 0.9346-2.2564 0.5984-0.5983 1.41-0.9345 2.2563-0.9345h4.2545c0.2822 0 0.5526 0.1121 0.7522 0.3116 0.1994 0.1994 0.3115 0.47 0.3115 0.752s-0.1121 0.5526-0.3115 0.752c-0.1996 0.1995-0.47 0.3116-0.7522 0.3116h-4.2545c-0.1518 0-0.3002 0.0325-0.436 0.0935-0.1166 0.0525-0.224 0.126-0.3162 0.2181-0.1994 0.1995-0.3115 0.4701-0.3115 0.7521v4.2545c0 0.282-0.112 0.5526-0.3114 0.752zm8.9061-4.6666c0.3867-0.2228 0.825-0.3399 1.2711-0.3399s0.8845 0.1171 1.2711 0.3399l0.0024 0.0013 5.1874 2.9642 0.0042 0.0023c0.3064 0.1769 0.5718 0.4155 0.7799 0.6991 0.0567 0.0597 0.1074 0.1267 0.1505 0.2012 0.0365 0.0631 0.0657 0.1283 0.088 0.1948 0.1671 0.3448 0.2546 0.7234 0.255 1.1091v5.9333c-5e-4 0.4477-0.1184 0.8863-0.3418 1.273-0.2236 0.3869-0.5448 0.7078-0.9316 0.9312l-0.0042 0.0023-5.1874 2.9642-0.0025 0.0016c-0.0891 0.0511-0.1809 0.0968-0.275 0.1368-0.1736 0.0738-0.3547 0.128-0.5401 0.1618-0.1382 0.0657-0.2927 0.1023-0.4559 0.1023-0.1631 0-0.3174-0.0366-0.4556-0.1023l-0.0553-0.0107c-0.266-0.0545-0.5229-0.1513-0.7601-0.2879l-0.0024-0.0016-5.1875-2.9642-0.0041-0.0023c-0.3868-0.2234-0.708-0.5443-0.9316-0.9312-0.2235-0.3867-0.3414-0.8253-0.3419-1.273v-5.9333c4e-4 -0.3862 0.0883-0.7658 0.2559-1.1109 0.0222-0.066 0.0513-0.1304 0.0874-0.193 0.0429-0.074 0.0931-0.1407 0.1495-0.2002 0.2082-0.2841 0.4739-0.523 0.7807-0.7001l0.0041-0.0023 2.3672-1.3527c0.1381-0.1397 0.3102-0.2357 0.4949-0.2828l2.3277-1.33zm6.6725 11.467-4.3377 2.4786v-5.1862l4.5475-2.6306v4.9752c-1e-4 0.0735-0.0194 0.1457-0.0563 0.2095-0.0365 0.0631-0.0889 0.1159-0.1535 0.1535zm-11.013-5.3382 4.5476 2.6306v5.1862l-4.3378-2.4786c-0.0243-0.0143-0.0466-0.0304-0.067-0.0483-0.0121-0.0104-0.0234-0.0215-0.034-0.0332-0.0199-0.0218-0.0375-0.046-0.0525-0.072-0.0367-0.0636-0.0562-0.1358-0.0563-0.2093v-4.9754zm10.128-1.8245-4.3028-2.4586-0.0042-0.0023c-0.0637-0.0369-0.1362-0.0564-0.2098-0.0564-0.044 0-0.0876 0.0071-0.1292 0.0206-0.028 9e-3 -0.055 0.021-0.0806 0.0358l-0.0042 0.0023-0.9479 0.5417 4.5033 2.597 1.1754-0.6801zm-3.3012 1.91-1.2154 0.7029-4.5169-2.6129 1.2158-0.6946 4.5165 2.6046z"
        clip-rule="evenodd" fill="url(#a)" fill-rule="evenodd" />
</svg>
