<svg xmlns="http://www.w3.org/2000/svg" fill="none" viewBox="0 0 24 23"><defs><linearGradient id="a" x1=".735" x2="26.263" y1="2.474" y2="9.466" gradientUnits="userSpaceOnUse"><stop offset="0" stop-color="#EB5F56"/><stop offset="1" stop-color="#D59F45"/></linearGradient></defs><path fill="url(#a)" d="m22.831 8.6551-6.9426-1.009-3.1035-6.2918c-0.0848-0.17227-0.2242-0.31172-0.3965-0.39649-0.432-0.21328-0.957-0.035546-1.1731 0.39649l-3.1035 6.2918-6.9426 1.009c-0.19141 0.02734-0.36641 0.11758-0.5004 0.2543-0.16198 0.16648-0.25124 0.39047-0.24816 0.62273s0.098235 0.4538 0.26457 0.61589l5.023 4.8973-1.1867 6.9152c-0.02783 0.1609-0.01003 0.3264 0.05138 0.4776 0.06142 0.1513 0.16398 0.2823 0.29607 0.3782 0.13209 0.096 0.28842 0.153 0.45126 0.1646s0.32567-0.0226 0.47004-0.0989l6.2098-3.2648 6.2098 3.2648c0.1695 0.0903 0.3664 0.1203 0.5551 0.0875 0.4757-0.082 0.7957-0.5332 0.7136-1.009l-1.1867-6.9152 5.023-4.8973c0.1368-0.1339 0.227-0.30894 0.2543-0.50034 0.0739-0.47852-0.2597-0.92149-0.7382-0.99258z"/></svg>