<svg xmlns="http://www.w3.org/2000/svg" width="27" height="27" fill="none" viewBox="0 0 27 27"><defs><linearGradient id="paint0_linear" x1="13.526" x2="13.526" y1=".722" y2="26.299" gradientUnits="userSpaceOnUse"><stop stop-color="#FF4EBE"/><stop offset="1" stop-color="#FF7E7E"/></linearGradient></defs><path fill="url(#paint0_linear)" d="M8.8729 23.9737H4.21973C3.91121 23.9737 3.61532 23.8512 3.39716 23.6332C3.179 23.4152 3.05644 23.1194 3.05644 22.8111V18.1609C3.05644 17.8525 2.93388 17.5568 2.71572 17.3388C2.49756 17.1208 2.20167 16.9983 1.89315 16.9983C1.58463 16.9983 1.28874 17.1208 1.07058 17.3388C0.852419 17.5568 0.729858 17.8525 0.729858 18.1609V22.8111C0.729858 23.7361 1.09754 24.6232 1.75202 25.2773C2.4065 25.9314 3.29416 26.2988 4.21973 26.2988H8.8729C9.18143 26.2988 9.47731 26.1763 9.69547 25.9583C9.91363 25.7403 10.0362 25.4446 10.0362 25.1362C10.0362 24.8279 9.91363 24.5322 9.69547 24.3142C9.47731 24.0962 9.18143 23.9737 8.8729 23.9737ZM25.159 16.9983C24.8505 16.9983 24.5546 17.1208 24.3364 17.3388C24.1183 17.5568 23.9957 17.8525 23.9957 18.1609V22.8111C23.9957 23.1194 23.8731 23.4152 23.655 23.6332C23.4368 23.8512 23.1409 23.9737 22.8324 23.9737H18.1792C17.8707 23.9737 17.5748 24.0962 17.3567 24.3142C17.1385 24.5322 17.0159 24.8279 17.0159 25.1362C17.0159 25.4446 17.1385 25.7403 17.3567 25.9583C17.5748 26.1763 17.8707 26.2988 18.1792 26.2988H22.8324C23.758 26.2988 24.6456 25.9314 25.3001 25.2773C25.9546 24.6232 26.3223 23.7361 26.3223 22.8111V18.1609C26.3223 17.8525 26.1997 17.5568 25.9816 17.3388C25.7634 17.1208 25.4675 16.9983 25.159 16.9983ZM22.8324 0.722412H18.1792C17.8707 0.722412 17.5748 0.844896 17.3567 1.06292C17.1385 1.28094 17.0159 1.57664 17.0159 1.88498C17.0159 2.19331 17.1385 2.48901 17.3567 2.70703C17.5748 2.92506 17.8707 3.04754 18.1792 3.04754H22.8324C23.1409 3.04754 23.4368 3.17002 23.655 3.38805C23.8731 3.60607 23.9957 3.90177 23.9957 4.2101V8.86036C23.9957 9.16869 24.1183 9.46439 24.3364 9.68241C24.5546 9.90044 24.8505 10.0229 25.159 10.0229C25.4675 10.0229 25.7634 9.90044 25.9816 9.68241C26.1997 9.46439 26.3223 9.16869 26.3223 8.86036V4.2101C26.3223 3.28511 25.9546 2.398 25.3001 1.74393C24.6456 1.08986 23.758 0.722412 22.8324 0.722412ZM1.89315 10.0229C2.20167 10.0229 2.49756 9.90044 2.71572 9.68241C2.93388 9.46439 3.05644 9.16869 3.05644 8.86036V4.2101C3.05644 3.90177 3.179 3.60607 3.39716 3.38805C3.61532 3.17002 3.91121 3.04754 4.21973 3.04754H8.8729C9.18143 3.04754 9.47731 2.92506 9.69547 2.70703C9.91363 2.48901 10.0362 2.19331 10.0362 1.88498C10.0362 1.57664 9.91363 1.28094 9.69547 1.06292C9.47731 0.844896 9.18143 0.722412 8.8729 0.722412H4.21973C3.29416 0.722412 2.4065 1.08986 1.75202 1.74393C1.09754 2.398 0.729858 3.28511 0.729858 4.2101V8.86036C0.729858 9.16869 0.852419 9.46439 1.07058 9.68241C1.28874 9.90044 1.58463 10.0229 1.89315 10.0229ZM11.1995 5.37267H6.54632C6.23779 5.37267 5.94191 5.49515 5.72375 5.71317C5.50559 5.9312 5.38303 6.2269 5.38303 6.53523V11.1855C5.38303 11.4938 5.50559 11.7895 5.72375 12.0075C5.94191 12.2256 6.23779 12.348 6.54632 12.348H11.1995C11.508 12.348 11.8039 12.2256 12.0221 12.0075C12.2402 11.7895 12.3628 11.4938 12.3628 11.1855V6.53523C12.3628 6.2269 12.2402 5.9312 12.0221 5.71317C11.8039 5.49515 11.508 5.37267 11.1995 5.37267ZM10.0362 10.0229H7.70961V7.69779H10.0362V10.0229ZM15.8527 12.348H20.5058C20.8143 12.348 21.1102 12.2256 21.3284 12.0075C21.5466 11.7895 21.6691 11.4938 21.6691 11.1855V6.53523C21.6691 6.2269 21.5466 5.9312 21.3284 5.71317C21.1102 5.49515 20.8143 5.37267 20.5058 5.37267H15.8527C15.5441 5.37267 15.2482 5.49515 15.0301 5.71317C14.8119 5.9312 14.6894 6.2269 14.6894 6.53523V11.1855C14.6894 11.4938 14.8119 11.7895 15.0301 12.0075C15.2482 12.2256 15.5441 12.348 15.8527 12.348ZM17.0159 7.69779H19.3425V10.0229H17.0159V7.69779ZM11.1995 14.6732H6.54632C6.23779 14.6732 5.94191 14.7957 5.72375 15.0137C5.50559 15.2317 5.38303 15.5274 5.38303 15.8357V20.486C5.38303 20.7943 5.50559 21.09 5.72375 21.308C5.94191 21.5261 6.23779 21.6486 6.54632 21.6486H11.1995C11.508 21.6486 11.8039 21.5261 12.0221 21.308C12.2402 21.09 12.3628 20.7943 12.3628 20.486V15.8357C12.3628 15.5274 12.2402 15.2317 12.0221 15.0137C11.8039 14.7957 11.508 14.6732 11.1995 14.6732ZM10.0362 19.3234H7.70961V16.9983H10.0362V19.3234ZM15.8527 18.1609C16.1612 18.1609 16.4571 18.0384 16.6752 17.8204C16.8934 17.6023 17.0159 17.3066 17.0159 16.9983C17.3245 16.9983 17.6204 16.8758 17.8385 16.6578C18.0567 16.4398 18.1792 16.1441 18.1792 15.8357C18.1792 15.5274 18.0567 15.2317 17.8385 15.0137C17.6204 14.7957 17.3245 14.6732 17.0159 14.6732H15.8527C15.5441 14.6732 15.2482 14.7957 15.0301 15.0137C14.8119 15.2317 14.6894 15.5274 14.6894 15.8357V16.9983C14.6894 17.3066 14.8119 17.6023 15.0301 17.8204C15.2482 18.0384 15.5441 18.1609 15.8527 18.1609ZM20.5058 14.6732C20.1973 14.6732 19.9014 14.7957 19.6832 15.0137C19.4651 15.2317 19.3425 15.5274 19.3425 15.8357V19.3234C19.034 19.3234 18.7381 19.4459 18.52 19.6639C18.3018 19.882 18.1792 20.1777 18.1792 20.486C18.1792 20.7943 18.3018 21.09 18.52 21.308C18.7381 21.5261 19.034 21.6486 19.3425 21.6486H20.5058C20.8143 21.6486 21.1102 21.5261 21.3284 21.308C21.5466 21.09 21.6691 20.7943 21.6691 20.486V15.8357C21.6691 15.5274 21.5466 15.2317 21.3284 15.0137C21.1102 14.7957 20.8143 14.6732 20.5058 14.6732ZM15.8527 19.3234C15.6226 19.3234 15.3977 19.3916 15.2064 19.5194C15.0151 19.6471 14.866 19.8287 14.7779 20.0411C14.6899 20.2535 14.6668 20.4873 14.7117 20.7128C14.7566 20.9383 14.8674 21.1455 15.0301 21.308C15.1928 21.4706 15.4 21.5814 15.6257 21.6262C15.8514 21.6711 16.0853 21.6481 16.2978 21.5601C16.5104 21.4721 16.6921 21.3231 16.8199 21.1319C16.9477 20.9407 17.0159 20.7159 17.0159 20.486C17.0159 20.1777 16.8934 19.882 16.6752 19.6639C16.4571 19.4459 16.1612 19.3234 15.8527 19.3234Z"/></svg>