<svg xmlns="http://www.w3.org/2000/svg" fill="none" viewBox="0 0 24 23"><defs><linearGradient id="a" x1=".735" x2="26.263" y1="2.474" y2="9.466" gradientUnits="userSpaceOnUse"><stop offset="0" stop-color="#EB5F56"/><stop offset="1" stop-color="#D59F45"/></linearGradient></defs><path stroke="url(#a)" d="m0.66876 8.9094c-0.16198 0.16649-0.25124 0.39047-0.24816 0.62273 0.003076 0.23227 0.098235 0.45381 0.26457 0.6159l5.023 4.8973-1.1867 6.9152c-0.02783 0.1609-0.01003 0.3264 0.05138 0.4776 0.06142 0.1513 0.16398 0.2823 0.29607 0.3782 0.13209 0.096 0.28842 0.153 0.45126 0.1646s0.32567-0.0226 0.47004-0.0989l6.2098-3.2648-10.974-10.358m-0.35772-0.34934 0.3571 0.34997c2.1e-4 -2.1e-4 4.1e-4 -4.2e-4 6.2e-4 -6.3e-4m-0.35772-0.34934c0.13398-0.13672 0.30898-0.22695 0.5004-0.25429l6.9426-1.009-7.443 1.2633zm0.35772 0.34934c-0.069156 0.07143-0.10725 0.16734-0.10593 0.26677 0.001321 0.09975 0.042188 0.19489 0.11362 0.26453l3e-5 3e-5 5.023 4.8973 0.18821 0.1835-0.04446 0.2591-1.1867 6.9152-1.2e-4 7e-4c-0.0119 0.0688-0.00429 0.1395 0.02198 0.2042 0.02626 0.0647 0.07013 0.1207 0.12662 0.1618 0.05649 0.041 0.12335 0.0654 0.19299 0.0704 0.06964 0.0049 0.13928-0.0097 0.20103-0.0423l7.7e-4 -4e-4 6.2097-3.2649 0.2327-0.1223 0.2327 0.1223 6.2098 3.2649 0.0022 0.0011c0.0693 0.0369 0.1531 0.0505 0.2345 0.0363l7e-4 -1e-4c0.2049-0.0353 0.3408-0.2289 0.3059-0.4313l-1e-4 -4e-4 -1.1867-6.9152-0.0445-0.2591 0.1883-0.1835 5.0221-4.8964 3e-4 -3.3e-4c0.0596-0.05849 0.0975-0.13331 0.109-0.21367l8e-4 -0.00553c0.0306-0.19854-0.1072-0.39023-0.3171-0.42169-2e-4 -2e-5 -3e-4 -5e-5 -5e-4 -7e-5l-7.2012-1.0466-0.1163-0.2358-3.1035-6.2918-3e-4 -4.3e-4c-0.036-0.07324-0.0953-0.13257-0.1686-0.16861l-5e-4 -2.9e-4c-0.1835-0.09057-0.41-0.01596-0.5041 0.17077-1e-4 3.2e-4 -3e-4 6.5e-4 -4e-4 9.8e-4l-3.1024 6.2894-0.11631 0.2358-7.2028 1.0468-0.0012 1.7e-4c-0.08023 0.01146-0.15493 0.04928-0.21338 0.10866z"/></svg>