<svg width="39" height="39" viewBox="0 0 39 39" fill="none" xmlns="http://www.w3.org/2000/svg">
    <defs>
        <linearGradient id="paint0_linear" x1="19.5" y1="0" x2="19.5" y2="39"
            gradientUnits="userSpaceOnUse">
            <stop stop-color="#FF4EBE" />
            <stop offset="1" stop-color="#FF7E7E" />
        </linearGradient>
    </defs>
    <path
        d="M26.5909 35.4545H33.6818C34.152 35.4545 34.6029 35.2678 34.9353 34.9353C35.2678 34.6029 35.4545 34.152 35.4545 33.6818V26.5909C35.4545 26.1208 35.6413 25.6699 35.9738 25.3374C36.3062 25.005 36.7571 24.8182 37.2273 24.8182C37.6974 24.8182 38.1483 25.005 38.4808 25.3374C38.8132 25.6699 39 26.1208 39 26.5909V33.6818C39 35.0923 38.4397 36.445 37.4423 37.4423C36.445 38.4397 35.0923 39 33.6818 39H26.5909C26.1208 39 25.6699 38.8132 25.3374 38.4808C25.005 38.1483 24.8182 37.6974 24.8182 37.2273C24.8182 36.7571 25.005 36.3062 25.3374 35.9738C25.6699 35.6413 26.1208 35.4545 26.5909 35.4545ZM1.77273 24.8182C2.24289 24.8182 2.69379 25.005 3.02624 25.3374C3.35869 25.6699 3.54546 26.1208 3.54546 26.5909V33.6818C3.54546 34.152 3.73222 34.6029 4.06467 34.9353C4.39713 35.2678 4.84803 35.4545 5.31818 35.4545H12.4091C12.8792 35.4545 13.3301 35.6413 13.6626 35.9738C13.995 36.3062 14.1818 36.7571 14.1818 37.2273C14.1818 37.6974 13.995 38.1483 13.6626 38.4808C13.3301 38.8132 12.8792 39 12.4091 39H5.31818C3.90771 39 2.55501 38.4397 1.55766 37.4423C0.560307 36.445 0 35.0923 0 33.6818V26.5909C0 26.1208 0.186768 25.6699 0.519218 25.3374C0.851669 25.005 1.30257 24.8182 1.77273 24.8182ZM5.31818 0H12.4091C12.8792 0 13.3301 0.186769 13.6626 0.51922C13.995 0.851671 14.1818 1.30257 14.1818 1.77273C14.1818 2.24288 13.995 2.69378 13.6626 3.02623C13.3301 3.35869 12.8792 3.54545 12.4091 3.54545H5.31818C4.84803 3.54545 4.39713 3.73222 4.06467 4.06467C3.73222 4.39713 3.54546 4.84803 3.54546 5.31818V12.4091C3.54546 12.8792 3.35869 13.3301 3.02624 13.6626C2.69379 13.995 2.24289 14.1818 1.77273 14.1818C1.30257 14.1818 0.851669 13.995 0.519218 13.6626C0.186768 13.3301 0 12.8792 0 12.4091V5.31818C0 3.90771 0.560307 2.55501 1.55766 1.55766C2.55501 0.560307 3.90771 0 5.31818 0ZM37.2273 14.1818C36.7571 14.1818 36.3062 13.995 35.9738 13.6626C35.6413 13.3301 35.4545 12.8792 35.4545 12.4091V5.31818C35.4545 4.84803 35.2678 4.39713 34.9353 4.06467C34.6029 3.73222 34.152 3.54545 33.6818 3.54545H26.5909C26.1208 3.54545 25.6699 3.35869 25.3374 3.02623C25.005 2.69378 24.8182 2.24288 24.8182 1.77273C24.8182 1.30257 25.005 0.851671 25.3374 0.51922C25.6699 0.186769 26.1208 0 26.5909 0H33.6818C35.0923 0 36.445 0.560307 37.4423 1.55766C38.4397 2.55501 39 3.90771 39 5.31818V12.4091C39 12.8792 38.8132 13.3301 38.4808 13.6626C38.1483 13.995 37.6974 14.1818 37.2273 14.1818ZM23.0455 7.09091H30.1364C30.6065 7.09091 31.0574 7.27768 31.3899 7.61013C31.7223 7.94258 31.9091 8.39348 31.9091 8.86364V15.9545C31.9091 16.4247 31.7223 16.8756 31.3899 17.2081C31.0574 17.5405 30.6065 17.7273 30.1364 17.7273H23.0455C22.5753 17.7273 22.1244 17.5405 21.7919 17.2081C21.4595 16.8756 21.2727 16.4247 21.2727 15.9545V8.86364C21.2727 8.39348 21.4595 7.94258 21.7919 7.61013C22.1244 7.27768 22.5753 7.09091 23.0455 7.09091ZM24.8182 14.1818H28.3636V10.6364H24.8182V14.1818ZM15.9545 17.7273H8.86364C8.39348 17.7273 7.94258 17.5405 7.61013 17.2081C7.27768 16.8756 7.09091 16.4247 7.09091 15.9545V8.86364C7.09091 8.39348 7.27768 7.94258 7.61013 7.61013C7.94258 7.27768 8.39348 7.09091 8.86364 7.09091H15.9545C16.4247 7.09091 16.8756 7.27768 17.2081 7.61013C17.5405 7.94258 17.7273 8.39348 17.7273 8.86364V15.9545C17.7273 16.4247 17.5405 16.8756 17.2081 17.2081C16.8756 17.5405 16.4247 17.7273 15.9545 17.7273ZM14.1818 10.6364H10.6364V14.1818H14.1818V10.6364ZM23.0455 21.2727H30.1364C30.6065 21.2727 31.0574 21.4595 31.3899 21.7919C31.7223 22.1244 31.9091 22.5753 31.9091 23.0455V30.1364C31.9091 30.6065 31.7223 31.0574 31.3899 31.3899C31.0574 31.7223 30.6065 31.9091 30.1364 31.9091H23.0455C22.5753 31.9091 22.1244 31.7223 21.7919 31.3899C21.4595 31.0574 21.2727 30.6065 21.2727 30.1364V23.0455C21.2727 22.5753 21.4595 22.1244 21.7919 21.7919C22.1244 21.4595 22.5753 21.2727 23.0455 21.2727ZM24.8182 28.3636H28.3636V24.8182H24.8182V28.3636ZM15.9545 26.5909C15.4844 26.5909 15.0335 26.4041 14.701 26.0717C14.3686 25.7392 14.1818 25.2883 14.1818 24.8182C13.7117 24.8182 13.2608 24.6314 12.9283 24.299C12.5959 23.9665 12.4091 23.5156 12.4091 23.0455C12.4091 22.5753 12.5959 22.1244 12.9283 21.7919C13.2608 21.4595 13.7117 21.2727 14.1818 21.2727H15.9545C16.4247 21.2727 16.8756 21.4595 17.2081 21.7919C17.5405 22.1244 17.7273 22.5753 17.7273 23.0455V24.8182C17.7273 25.2883 17.5405 25.7392 17.2081 26.0717C16.8756 26.4041 16.4247 26.5909 15.9545 26.5909ZM8.86364 21.2727C9.33379 21.2727 9.78469 21.4595 10.1171 21.7919C10.4496 22.1244 10.6364 22.5753 10.6364 23.0455V28.3636C11.1065 28.3636 11.5574 28.5504 11.8899 28.8829C12.2223 29.2153 12.4091 29.6662 12.4091 30.1364C12.4091 30.6065 12.2223 31.0574 11.8899 31.3899C11.5574 31.7223 11.1065 31.9091 10.6364 31.9091H8.86364C8.39348 31.9091 7.94258 31.7223 7.61013 31.3899C7.27768 31.0574 7.09091 30.6065 7.09091 30.1364V23.0455C7.09091 22.5753 7.27768 22.1244 7.61013 21.7919C7.94258 21.4595 8.39348 21.2727 8.86364 21.2727ZM15.9545 28.3636C16.3052 28.3636 16.6479 28.4676 16.9394 28.6624C17.2309 28.8572 17.4582 29.134 17.5923 29.458C17.7265 29.7819 17.7616 30.1383 17.6932 30.4822C17.6248 30.8261 17.456 31.142 17.2081 31.3899C16.9601 31.6378 16.6443 31.8066 16.3004 31.875C15.9565 31.9434 15.6001 31.9083 15.2762 31.7741C14.9522 31.64 14.6754 31.4128 14.4806 31.1212C14.2858 30.8297 14.1818 30.487 14.1818 30.1364C14.1818 29.6662 14.3686 29.2153 14.701 28.8829C15.0335 28.5504 15.4844 28.3636 15.9545 28.3636Z"
        fill="url(#paint0_linear)" />
</svg>
