<svg xmlns="http://www.w3.org/2000/svg" xmlns:xlink="http://www.w3.org/1999/xlink" width="33.398" height="33.4" viewBox="0 0 33.398 33.4"><defs><linearGradient id="linear-gradient" x1=".5" x2=".5" y2="1" gradientUnits="objectBoundingBox"><stop offset="0" stop-color="#ff4ebe"/><stop offset="1" stop-color="#ff7e7e"/></linearGradient></defs><g id="Group" transform="translate(-0.801 -0.799)"><path id="Path_8027" fill="url(#linear-gradient)" d="M16.2,1.051A16.5,16.5,0,1,1,1.009,16.963a1.548,1.548,0,1,1,3.094.093,13.406,13.406,0,1,0,3.244-8.31l-.421.512h4.907l.21.016a1.547,1.547,0,0,1,0,3.065l-.21.014H3.583l-.21-.014A1.547,1.547,0,0,1,2.05,11.017l-.014-.21V2.557l.014-.21A1.547,1.547,0,0,1,3.372,1.024l.21-.014.21.014A1.547,1.547,0,0,1,5.115,2.346l.014.21,0,4.028A16.453,16.453,0,0,1,16.2,1.053Zm.78,8.207.21.014a1.547,1.547,0,0,1,1.322,1.322l.014.21V17.5l3.609,0,.21.014a1.547,1.547,0,0,1,0,3.067l-.21.012H16.983l-.21-.012a1.547,1.547,0,0,1-1.322-1.324l-.015-.21V10.8l.015-.21a1.547,1.547,0,0,1,1.322-1.322Z" data-name="Path 8027"/><path id="Path_8028" fill="url(#linear-gradient)" fill-rule="evenodd" d="M16,.866l.184-.015A16.7,16.7,0,1,1,.809,16.956a1.748,1.748,0,0,1,3.494.105A13.206,13.206,0,1,0,7.5,8.875l-.15.183h4.491l.23.018a1.747,1.747,0,0,1,0,3.461l-.014,0-.224.015H3.569l-.224-.016a1.748,1.748,0,0,1-1.493-1.493l0-.014-.015-.224V2.543l.016-.224A1.748,1.748,0,0,1,3.345.826l.013,0L3.583.809,3.82.825A1.748,1.748,0,0,1,5.313,2.319l0,.013.015.224,0,3.51A16.653,16.653,0,0,1,16,.869Zm.2.187A16.453,16.453,0,0,0,5.328,6.361q-.1.111-.2.223l0-4.028-.014-.21A1.547,1.547,0,0,0,3.793,1.024l-.21-.014-.21.014A1.547,1.547,0,0,0,2.05,2.346l-.014.21v8.25l.014.21a1.547,1.547,0,0,0,1.322,1.322l.21.015h8.25l.21-.015a1.547,1.547,0,0,0,0-3.065l-.21-.017H6.926l.421-.511A13.406,13.406,0,1,1,4.1,17.056a1.548,1.548,0,0,0-3.094-.093A16.5,16.5,0,1,0,16.2,1.051Zm.78,8,.238.016a1.748,1.748,0,0,1,1.493,1.493l0,.014.015.224V17.3l3.423,0,.223.016a1.747,1.747,0,0,1,0,3.464h-.007l-.229.014H16.971l-.218-.013h-.008a1.747,1.747,0,0,1-1.493-1.5l0-.013-.015-.224V10.791l.016-.224a1.748,1.748,0,0,1,1.494-1.493l.013,0ZM18.53,17.5V10.8l-.014-.21a1.547,1.547,0,0,0-1.322-1.322l-.21-.014-.21.014a1.547,1.547,0,0,0-1.322,1.322l-.014.21v8.242l.014.21a1.547,1.547,0,0,0,1.322,1.324l.21.012h5.156l.21-.012a1.547,1.547,0,0,0,0-3.067l-.21-.014Z" data-name="Path 8028"/></g></svg>