<svg xmlns="http://www.w3.org/2000/svg" width="27" height="36" fill="none" viewBox="0 0 27 36"><defs><filter id="filter0_d" width="27" height="36" x="0" y="0" color-interpolation-filters="sRGB" filterUnits="userSpaceOnUse"><feFlood flood-opacity="0" result="BackgroundImageFix"/><feColorMatrix in="SourceAlpha" result="hardAlpha" type="matrix" values="0 0 0 0 0 0 0 0 0 0 0 0 0 0 0 0 0 0 127 0"/><feOffset dy="4"/><feGaussianBlur stdDeviation="2"/><feColorMatrix type="matrix" values="0 0 0 0 0 0 0 0 0 0 0 0 0 0 0 0 0 0 0.25 0"/><feBlend in2="BackgroundImageFix" mode="normal" result="effect1_dropShadow"/><feBlend in="SourceGraphic" in2="effect1_dropShadow" mode="normal" result="shape"/></filter></defs><g filter="url(#filter0_d)"><path fill="#fff" d="M8.63377 27.92C8.42927 27.8336 8.25932 27.6816 8.15075 27.4878C8.04218 27.2941 8.00117 27.0697 8.03418 26.85L9.85295 15.0002H5.0262C4.87318 15.0043 4.72126 14.9732 4.58216 14.9092C4.44306 14.8453 4.32049 14.7502 4.22393 14.6314C4.12736 14.5125 4.05937 14.373 4.02521 14.2237C3.99104 14.0744 3.99161 13.9192 4.02688 13.7702L7.02486 0.770348C7.07761 0.54662 7.20578 0.347911 7.38779 0.207668C7.56981 0.0674258 7.79455 -0.00578589 8.02418 0.000357407H18.0175C18.1667 -0.000150558 18.3143 0.0328207 18.4491 0.0968485C18.584 0.160876 18.7029 0.254333 18.7969 0.370353C18.8923 0.487683 18.9599 0.625135 18.9945 0.772364C19.0291 0.919593 19.0299 1.07276 18.9968 1.22034L17.268 9.00024H22.0148C22.2021 8.99987 22.3857 9.05217 22.5447 9.15118C22.7037 9.2502 22.8317 9.39194 22.9142 9.56024C22.9858 9.72177 23.0133 9.89941 22.994 10.0751C22.9747 10.2507 22.9092 10.4181 22.8042 10.5602L9.81298 27.56C9.72518 27.6902 9.60795 27.798 9.47078 27.8744C9.33362 27.9508 9.18039 27.9939 9.02351 28C8.88979 27.9975 8.75768 27.9704 8.63377 27.92ZM14.7696 11.0002L16.7683 2.00033H8.82365L6.28536 13.0002H12.1914L10.6024 23.2801L20.0161 11.0002H14.7696Z"/></g></svg>