<svg id="icon-2" xmlns="http://www.w3.org/2000/svg" xmlns:xlink="http://www.w3.org/1999/xlink"
    width="50" height="50" viewBox="0 0 50 50">
    <defs>
        <linearGradient id="linear-gradient" x1="0.5" x2="0.5" y2="1"
            gradientUnits="objectBoundingBox">
            <stop offset="0" stop-color="#ff4ebe" />
            <stop offset="1" stop-color="#ff7e7e" />
        </linearGradient>
    </defs>
    <circle id="Ellipse_570" data-name="Ellipse 570" cx="25" cy="25" r="25" transform="translate(0)"
        fill="url(#linear-gradient)" />
    <path id="Path_8022" data-name="Path 8022"
        d="M16.369,15.5v18a2.25,2.25,0,0,0,2.25,2.25h13.5a2.25,2.25,0,0,0,2.25-2.25V20.385a2.25,2.25,0,0,0-.677-1.609L28.7,13.891a2.25,2.25,0,0,0-1.573-.641H18.619a2.25,2.25,0,0,0-2.25,2.25Z"
        transform="translate(-0.407)" fill="none" stroke="#fff" stroke-linecap="round"
        stroke-linejoin="round" stroke-width="2" />
    <path id="Path_8023" data-name="Path 8023" d="M27.619,13.25v4.5A2.25,2.25,0,0,0,29.869,20h4.5"
        transform="translate(-0.511)" fill="none" stroke="#fff" stroke-linejoin="round"
        stroke-width="2" />
    <line id="Line_1" data-name="Line 1" x2="12" transform="translate(18.963 23.5)" fill="none"
        stroke="#fff" stroke-linecap="round" stroke-width="1" />
    <line id="Line_2" data-name="Line 2" x2="5" transform="translate(19.025 26.5)" fill="none"
        stroke="#fff" stroke-linecap="round" stroke-width="1" />
    <line id="Line_3" data-name="Line 3" x2="8" transform="translate(19.001 29.5)" fill="none"
        stroke="#fff" stroke-linecap="round" stroke-width="1" />
</svg>
