<svg xmlns="http://www.w3.org/2000/svg" xmlns:xlink="http://www.w3.org/1999/xlink" id="icon-2" width="50" height="50" viewBox="0 0 50 50"><defs><linearGradient id="linear-gradient" x1=".5" x2=".5" y2="1" gradientUnits="objectBoundingBox"><stop offset="0" stop-color="#ff4ebe"/><stop offset="1" stop-color="#ff7e7e"/></linearGradient></defs><circle id="Ellipse_570" cx="25" cy="25" r="25" fill="url(#linear-gradient)" data-name="Ellipse 570" transform="translate(0)"/><path id="Path_8022" fill="none" stroke="#fff" stroke-linecap="round" stroke-linejoin="round" stroke-width="2" d="M16.369,15.5v18a2.25,2.25,0,0,0,2.25,2.25h13.5a2.25,2.25,0,0,0,2.25-2.25V20.385a2.25,2.25,0,0,0-.677-1.609L28.7,13.891a2.25,2.25,0,0,0-1.573-.641H18.619a2.25,2.25,0,0,0-2.25,2.25Z" data-name="Path 8022" transform="translate(-0.407)"/><path id="Path_8023" fill="none" stroke="#fff" stroke-linejoin="round" stroke-width="2" d="M27.619,13.25v4.5A2.25,2.25,0,0,0,29.869,20h4.5" data-name="Path 8023" transform="translate(-0.511)"/><line id="Line_1" x2="12" fill="none" stroke="#fff" stroke-linecap="round" stroke-width="1" data-name="Line 1" transform="translate(18.963 23.5)"/><line id="Line_2" x2="5" fill="none" stroke="#fff" stroke-linecap="round" stroke-width="1" data-name="Line 2" transform="translate(19.025 26.5)"/><line id="Line_3" x2="8" fill="none" stroke="#fff" stroke-linecap="round" stroke-width="1" data-name="Line 3" transform="translate(19.001 29.5)"/></svg>