<svg width="46" height="42" viewBox="0 0 46 42" fill="none" xmlns="http://www.w3.org/2000/svg">
    <defs>
        <linearGradient id="paint0_linear" x1="21" y1="0" x2="21" y2="42"
            gradientUnits="userSpaceOnUse">
            <stop stop-color="#FF4EBE" />
            <stop offset="1" stop-color="#FF7E7E" />
        </linearGradient>
        <linearGradient id="paint1_linear" x1="43.5494" y1="1.85585" x2="33.2431" y2="13.9459"
            gradientUnits="userSpaceOnUse">
            <stop offset="0.0789437" stop-color="#66E3FF" />
            <stop offset="0.566379" stop-color="#7FE177" />
            <stop offset="1" stop-color="#84C07F" />
            <stop offset="1" stop-color="#84C07F" />
        </linearGradient>
    </defs>
    <path
        d="M42 21C42 32.598 32.598 42 21 42C9.40202 42 0 32.598 0 21C0 9.40202 9.40202 0 21 0C25.6077 0 29.8687 1.48395 33.3314 4C35.0655 5.26006 33.2232 9.27898 34.5 11C35.564 12.4342 39.8258 11.5087 40.5 13.1907C41.4676 15.6048 42 18.2402 42 21Z"
        fill="url(#paint0_linear)" />
    <path fill-rule="evenodd" clip-rule="evenodd"
        d="M37.9998 0.666656C33.9498 0.666656 30.6665 3.94999 30.6665 7.99999C30.6665 12.05 33.9498 15.3333 37.9998 15.3333C42.0498 15.3333 45.3332 12.05 45.3332 7.99999C45.3332 3.94999 42.0498 0.666656 37.9998 0.666656ZM41.1785 6.75999C41.237 6.69308 41.2816 6.61515 41.3096 6.53077C41.3375 6.44639 41.3483 6.35727 41.3414 6.26865C41.3344 6.18003 41.3097 6.0937 41.2689 6.01474C41.228 5.93578 41.1718 5.86579 41.1035 5.80888C41.0352 5.75198 40.9563 5.7093 40.8712 5.68336C40.7862 5.65743 40.6969 5.64876 40.6084 5.65787C40.52 5.66698 40.4343 5.69369 40.3563 5.73641C40.2784 5.77914 40.2098 5.83702 40.1545 5.90666L37.2878 9.34599L35.8045 7.86199C35.6788 7.74055 35.5104 7.67335 35.3356 7.67487C35.1608 7.67639 34.9936 7.7465 34.87 7.87011C34.7464 7.99372 34.6762 8.16092 34.6747 8.33572C34.6732 8.51052 34.7404 8.67892 34.8618 8.80466L36.8618 10.8047C36.9273 10.8701 37.0058 10.9212 37.0921 10.9547C37.1785 10.9882 37.2708 11.0033 37.3633 10.9991C37.4559 10.9949 37.5465 10.9715 37.6294 10.9303C37.7124 10.8891 37.7859 10.8311 37.8452 10.76L41.1785 6.75999Z"
        fill="url(#paint1_linear)" />
    <path
        d="M19.4559 8.13914C19.255 7.71236 19.1915 7.23583 19.1888 6.76847C19.1718 7.08597 19.1833 7.83433 19.3656 8.28773C20.0365 9.18973 20.8789 9.95492 21.7921 10.6056C23.1012 11.5279 24.5125 12.3232 25.6881 13.4228C26.0023 13.8117 25.9506 14.3733 25.7994 14.8203C25.4262 15.8631 24.6303 16.6649 23.9273 17.4923C25.5689 18.2942 27.0653 19.4239 28.1957 20.8673C29.6279 22.6667 30.4599 25.0009 30.2158 27.3122C30.0128 29.4618 28.8916 31.4458 27.35 32.9264L27.2512 33.0253C28.0884 32.6888 28.8902 32.2634 29.6358 31.7535C30.926 30.8573 32.0649 29.632 32.5506 28.1101C32.9951 26.7597 32.8694 25.2752 32.3876 23.9529C31.701 22.0769 30.4193 20.4595 28.8922 19.1916C27.9333 18.4074 26.8624 17.7417 25.6861 17.3411C26.1679 17.0688 26.5259 16.6257 26.7917 16.1478C27.1576 15.4874 27.3671 14.7215 27.28 13.9635C27.2237 13.4739 27.0123 12.9961 26.6555 12.6504C25.7863 11.7458 24.5956 11.2752 23.4691 10.783C22.3138 10.3038 21.1316 9.81091 20.1746 8.98485L20.1738 8.98413C19.8992 8.73692 19.6135 8.47984 19.4559 8.13914Z"
        fill="white" />
    <path
        d="M11.8609 6.71021C11.9715 6.52824 12.1764 6.45034 12.3577 6.35936L11.5912 6.4438C10.6441 6.97466 9.94498 7.89367 9.63341 8.92921C9.17062 10.4112 9.30743 11.9861 9.39842 13.5119C9.42329 14.1023 9.50053 14.7117 9.32707 15.2884C8.73664 17.1637 8.31248 19.0954 8.1076 21.0519C7.9636 22.5469 7.92694 24.0734 8.23459 25.5514C8.44536 26.5332 8.83352 27.5256 9.58366 28.222C9.83829 28.442 10.0353 28.7162 10.2546 28.9689C12.5816 31.6788 15.7124 33.6818 19.1476 34.6617C19.6706 34.8129 20.2008 34.9399 20.7343 35.0518C20.8344 35.0695 20.9359 35.0865 21.0367 35.1055C22.461 35.3706 23.9122 35.4616 25.3595 35.4328C26.0573 35.3975 26.7668 35.3955 27.441 35.1867C27.7925 35.0793 28.1401 34.951 28.4654 34.7776C29.1743 34.4117 29.7104 33.7944 30.1293 33.1281C30.5614 32.4355 30.941 31.7122 31.3737 31.0203C31.7075 30.4574 32.0989 29.9324 32.4675 29.3937C31.6617 30.1203 30.8808 30.8763 30.1693 31.6965C29.6194 32.3 29.1265 32.9703 28.4615 33.456C27.9568 33.8219 27.335 33.9869 26.7203 34.032C23.24 34.2487 19.6699 33.6092 16.5784 31.9616C14.4641 30.8449 12.5914 29.289 11.0545 27.4614C10.2821 26.5352 9.80687 25.3805 9.65043 24.1886C9.44358 22.6536 9.65763 21.101 9.95611 19.5935C10.2507 18.1475 10.6238 16.7186 10.9419 15.2779C11.1101 14.5899 11.0198 13.8765 10.9851 13.1793C10.9124 11.9376 10.8273 10.6887 10.9602 9.44828C11.063 8.48868 11.2973 7.50944 11.8609 6.71021Z"
        fill="white" />
    <path
        d="M15.3351 7.44397C15.5884 7.50354 15.8424 7.56768 16.0852 7.66391C16.8753 7.95454 17.507 8.61958 17.7596 9.42274C18.1491 10.637 17.9972 11.9441 17.7681 13.1747C17.2039 16.0031 16.0885 18.6745 15.1531 21.3909C14.6871 22.742 14.1883 24.1054 14.0541 25.5383C15.1865 25.6561 16.1749 26.2878 17.0566 26.9666C18.7572 28.3065 20.2202 29.9233 21.9424 31.2376C22.7926 31.8817 23.7123 32.4643 24.74 32.7785C25.1151 32.8917 25.5052 32.9428 25.8868 33.0312C25.3527 32.9971 24.812 33.0259 24.2844 32.9179C23.097 32.7104 21.9901 32.1835 20.9788 31.5427C19.7816 30.7879 18.7022 29.8683 17.6209 28.9597C16.6475 28.1579 15.6958 27.3148 14.6 26.6799C13.8682 26.2518 13.0304 25.9408 12.1689 26.0259C12.6926 25.7117 13.2915 25.518 13.9068 25.5324C13.7622 24.9158 13.7687 24.2756 13.8374 23.6498C13.9932 22.2209 14.3951 20.8352 14.8121 19.4645C15.1983 18.211 15.5878 16.9588 15.9615 15.7014C16.3687 14.2784 16.7477 12.8344 16.8596 11.3531C16.9205 10.3922 16.8668 9.37299 16.3857 8.51485C16.1428 8.06647 15.7593 7.71693 15.3351 7.44397Z"
        fill="white" />
    <path
        d="M21.7924 10.6056C23.1016 11.5279 24.5128 12.3232 25.6884 13.4228C26.0026 13.8117 25.9509 14.3733 25.7997 14.8203C25.4266 15.8631 24.6306 16.6649 23.9276 17.4923C25.5693 18.2942 27.0656 19.4239 28.1961 20.8673C29.6283 22.6667 30.4603 25.0009 30.2161 27.3122C30.0132 29.4618 28.8919 31.4458 27.3504 32.9264C26.8765 33.0606 26.3751 33.0921 25.8868 33.0312C25.5051 32.9428 25.115 32.8917 24.74 32.7785C23.7123 32.4643 22.7926 31.8817 21.9423 31.2376C20.2201 29.9233 18.7572 28.3065 17.0566 26.9666C16.1749 26.2878 15.1865 25.6561 14.0541 25.5383C14.1883 24.1054 14.687 22.742 15.1531 21.3909C16.0885 18.6745 17.2039 16.0032 17.7681 13.1748C17.9043 12.8815 18.1779 12.691 18.4089 12.477C19.3816 11.6156 20.5265 10.9296 21.7924 10.6056ZM26.8274 24.7502C26.4582 25.0343 26.2232 25.4532 26.0779 25.8891C25.8416 25.6758 25.6046 25.4558 25.3193 25.3099C24.8303 25.0533 24.2287 24.9597 23.7057 25.1672C23.2816 25.3367 22.9726 25.7543 22.9386 26.2105C22.879 26.8219 23.1107 27.4431 23.5297 27.8889C24.2477 28.6724 25.2302 29.1456 26.2049 29.5286C26.4988 29.6235 26.7822 29.7766 27.0931 29.8015C27.7327 29.2242 28.2694 28.5225 28.6556 27.7507C29.0195 27.0026 29.2133 26.1281 28.9829 25.3112C28.8782 24.923 28.6288 24.5342 28.2269 24.4092C27.7405 24.2409 27.2129 24.4471 26.8274 24.7502Z"
        fill="white" fill-opacity="0.49" />

</svg>
